#N canvas 849 241 690 188 12;
#X obj -28 32 cnv 15 230 145 empty empty Control 7 10 0 18 -228856
-4160 0;
#X obj -20 149 nbx 5 14 -1e+037 1e+037 0 0 empty empty Bar 10 -6 0
10 -228856 -1 -1 3 256;
#X obj -20 74 bng 40 250 50 0 empty pdm_play Play 0 -6 0 12 -24198
-1 -1;
#X obj 29 73 bng 40 250 50 0 empty pdm_stop Stop 0 -6 0 12 -258699
-1 -1;
#X obj 81 74 tgl 40 0 empty empty Repeat 0 -6 0 12 -191407 -1 -1 1
1;
#X obj 133 74 bng 40 250 50 0 empty empty Open(.pdm) -5 -6 0 12 -191407
-1 -1;
#N canvas 131 692 753 511 pdm_expressive_sequencer 1;
#X floatatom 407 117 5 0 0 0 - - -;
#X msg 361 187 tempo \$1;
#X floatatom 406 291 5 0 0 0 - - -;
#X obj 399 266 /;
#X msg 399 240 1;
#X text 359 261 dur;
#X text 260 254 f0;
#X obj 381 346 * 1;
#X text 299 265 ch;
#X text 339 261 sl;
#X obj 381 372 + 0;
#X msg 361 91 bang;
#X floatatom 369 140 5 0 0 0 - - -;
#X obj 361 116 +;
#X obj 274 168 r NOTE;
#X obj 399 214 t b f;
#X obj 381 424 limit 20 10000 0;
#X text 434 398 art scaling;
#N canvas 1206 619 686 751 pdm_process_tempo 0;
#X obj 7 152 * 1;
#X obj 36 152 * 1;
#X obj 65 153 * 1;
#X obj 95 153 * 1;
#X obj 140 446 + 1;
#X obj 56 10 inlet;
#X obj 141 503 outlet;
#X obj 114 125 r dmt4;
#X obj 86 100 r dmt3;
#X obj 55 125 r dmt2;
#X obj 26 101 r dmt1;
#X obj 126 152 * 1;
#X obj 155 152 * 1;
#X obj 184 153 * 1;
#X obj 214 153 * 1;
#X obj 247 152 * 1;
#X obj 276 152 * 1;
#X obj 305 153 * 1;
#X obj 339 153 * 1;
#X obj 371 152 * 1;
#X obj 404 152 * 1;
#X obj 434 152 * 1;
#X obj 470 152 * 1;
#X obj 502 152 * 1;
#X obj 534 152 * 1;
#X obj 565 152 * 1;
#X obj 598 153 * 1;
#X obj 145 101 r dmt5;
#X obj 174 125 r dmt6;
#X obj 205 101 r dmt7;
#X obj 233 125 r dmt8;
#X obj 266 101 r dmt9;
#X obj 295 125 r dmt11;
#X obj 325 100 r dmt12;
#X obj 358 125 r dmt13;
#X obj 391 101 r dmt14;
#X obj 423 126 r dmt15;
#X obj 124 343 pluss 0 0 0 0 0 0 0 0 0 0 0 0 0 0 0 0 0 0 0 0;
#X obj 58 50 unpack f f f f f f f f f f f f f f f f f f f f;
#X connect 0 0 37 0;
#X connect 1 0 37 1;
#X connect 2 0 37 2;
#X connect 3 0 37 3;
#X connect 4 0 6 0;
#X connect 5 0 38 0;
#X connect 7 0 3 1;
#X connect 8 0 2 1;
#X connect 9 0 1 1;
#X connect 10 0 0 1;
#X connect 11 0 37 4;
#X connect 12 0 37 5;
#X connect 13 0 37 6;
#X connect 14 0 37 7;
#X connect 15 0 37 8;
#X connect 16 0 37 9;
#X connect 17 0 37 10;
#X connect 18 0 37 11;
#X connect 19 0 37 12;
#X connect 20 0 37 13;
#X connect 21 0 37 14;
#X connect 22 0 37 15;
#X connect 23 0 37 16;
#X connect 24 0 37 17;
#X connect 25 0 37 18;
#X connect 26 0 37 19;
#X connect 27 0 11 1;
#X connect 28 0 12 1;
#X connect 29 0 13 1;
#X connect 30 0 14 1;
#X connect 31 0 15 1;
#X connect 32 0 16 1;
#X connect 33 0 17 1;
#X connect 34 0 18 1;
#X connect 35 0 19 1;
#X connect 36 0 20 1;
#X connect 37 0 4 0;
#X connect 38 0 0 0;
#X connect 38 1 1 0;
#X connect 38 2 2 0;
#X connect 38 3 3 0;
#X connect 38 4 11 0;
#X connect 38 5 12 0;
#X connect 38 6 13 0;
#X connect 38 7 14 0;
#X connect 38 8 15 0;
#X connect 38 9 16 0;
#X connect 38 10 17 0;
#X connect 38 11 18 0;
#X connect 38 12 19 0;
#X connect 38 13 20 0;
#X connect 38 14 21 0;
#X connect 38 15 22 0;
#X connect 38 16 23 0;
#X connect 38 17 24 0;
#X connect 38 18 25 0;
#X connect 38 19 26 0;
#X restore 400 44 pd pdm_process_tempo;
#X obj 123 243 r dmssc;
#X obj 400 93 * 1;
#X obj 418 69 r dmtsc;
#X obj 361 161 limit 0.1 10 0;
#X obj 105 197 r DSL;
#X obj 414 320 r DART;
#X obj 381 398 * 0.99;
#N canvas 571 468 1062 882 pdm_sound_level 0;
#X obj 19 165 * 1;
#X obj 48 165 * 1;
#X obj 77 166 * 1;
#X obj 107 166 * 1;
#X obj 60 824 outlet;
#X obj 138 165 * 1;
#X obj 167 165 * 1;
#X obj 196 166 * 1;
#X obj 226 166 * 1;
#X obj 259 165 * 1;
#X obj 288 165 * 1;
#X obj 317 166 * 1;
#X obj 351 166 * 1;
#X obj 383 165 * 1;
#X obj 416 165 * 1;
#X obj 446 165 * 1;
#X obj 482 165 * 1;
#X obj 514 165 * 1;
#X obj 546 165 * 1;
#X obj 577 165 * 1;
#X obj 610 166 * 1;
#X obj 67 138 r dms2;
#X obj 38 114 r dms1;
#X obj 98 113 r dms3;
#X obj 126 138 r dms4;
#X obj 157 114 r dms5;
#X obj 186 138 r dms6;
#X obj 218 114 r dms7;
#X obj 245 138 r dms10;
#X obj 278 114 r dms11;
#X obj 307 138 r dms12;
#X obj 83 20 inlet;
#X obj 341 114 r dms13;
#X obj 97 467 pluss 0 0 0 0 0 0 0 0 0 0 0 0 0 0 0 0 0 0 0 0 0 0 0 0
0 0;
#X obj 83 63 unpack f f f f f f f f f f f f f f f f f f f f;
#X connect 0 0 33 0;
#X connect 1 0 33 1;
#X connect 2 0 33 2;
#X connect 3 0 33 3;
#X connect 5 0 33 4;
#X connect 6 0 33 5;
#X connect 7 0 33 6;
#X connect 8 0 33 7;
#X connect 9 0 33 8;
#X connect 10 0 33 9;
#X connect 11 0 33 10;
#X connect 12 0 33 11;
#X connect 13 0 33 12;
#X connect 14 0 33 13;
#X connect 15 0 33 14;
#X connect 16 0 33 15;
#X connect 17 0 33 16;
#X connect 18 0 33 17;
#X connect 19 0 33 18;
#X connect 20 0 33 19;
#X connect 21 0 1 1;
#X connect 22 0 0 1;
#X connect 23 0 2 1;
#X connect 24 0 3 1;
#X connect 25 0 5 1;
#X connect 26 0 6 1;
#X connect 27 0 7 1;
#X connect 28 0 8 1;
#X connect 29 0 9 1;
#X connect 30 0 10 1;
#X connect 31 0 34 0;
#X connect 32 0 11 1;
#X connect 33 0 4 0;
#X connect 34 0 0 0;
#X connect 34 1 1 0;
#X connect 34 2 2 0;
#X connect 34 3 3 0;
#X connect 34 4 5 0;
#X connect 34 5 6 0;
#X connect 34 6 7 0;
#X connect 34 7 8 0;
#X connect 34 8 9 0;
#X connect 34 9 10 0;
#X connect 34 10 11 0;
#X connect 34 11 12 0;
#X connect 34 12 13 0;
#X connect 34 13 14 0;
#X connect 34 14 15 0;
#X connect 34 15 16 0;
#X connect 34 16 17 0;
#X connect 34 17 18 0;
#X connect 34 18 19 0;
#X connect 34 19 20 0;
#X restore 105 220 pd pdm_sound_level;
#N canvas 23 134 698 389 pdm_articulation 1;
#X obj 19 167 * 1;
#X obj 48 167 * 1;
#X obj 77 168 * 1;
#X obj 107 168 * 1;
#X obj 72 17 inlet;
#X obj 127 290 outlet;
#X obj 138 167 * 1;
#X obj 167 167 * 1;
#X obj 196 168 * 1;
#X obj 226 168 * 1;
#X obj 259 167 * 1;
#X obj 288 167 * 1;
#X obj 317 168 * 1;
#X obj 351 168 * 1;
#X obj 383 167 * 1;
#X obj 416 167 * 1;
#X obj 446 167 * 1;
#X obj 482 167 * 1;
#X obj 514 167 * 1;
#X obj 546 167 * 1;
#X obj 577 167 * 1;
#X obj 610 168 * 1;
#X obj 38 116 r dma9;
#X obj 68 140 r dma16;
#X obj 98 115 r dma17;
#X obj 126 140 r dma18;
#X obj 157 116 r dma19;
#X obj 6 264 != 0;
#X obj 5 288 s pdm_staccato;
#X obj 128 245 pluss 0 0 0 0 0 0 0 0 0 0 0 0 0 0 0 0 0 0 0 0;
#X obj 76 62 unpack f f f f f f f f f f f f f f f f f f f f;
#X connect 0 0 29 0;
#X connect 1 0 29 1;
#X connect 2 0 29 2;
#X connect 3 0 29 3;
#X connect 4 0 30 0;
#X connect 6 0 29 4;
#X connect 7 0 29 5;
#X connect 8 0 29 6;
#X connect 9 0 29 7;
#X connect 10 0 29 8;
#X connect 11 0 29 9;
#X connect 12 0 29 10;
#X connect 13 0 29 11;
#X connect 14 0 29 12;
#X connect 15 0 29 13;
#X connect 16 0 29 14;
#X connect 17 0 29 15;
#X connect 18 0 29 16;
#X connect 19 0 29 17;
#X connect 20 0 29 18;
#X connect 21 0 29 19;
#X connect 22 0 0 1;
#X connect 23 0 1 1;
#X connect 24 0 2 1;
#X connect 25 0 3 1;
#X connect 26 0 6 1;
#X connect 27 0 28 0;
#X connect 29 0 5 0;
#X connect 30 0 0 0;
#X connect 30 1 1 0;
#X connect 30 2 2 0;
#X connect 30 3 3 0;
#X connect 30 3 27 0;
#X connect 30 4 6 0;
#X connect 30 5 7 0;
#X connect 30 6 8 0;
#X connect 30 7 9 0;
#X connect 30 8 10 0;
#X connect 30 9 11 0;
#X connect 30 10 12 0;
#X connect 30 11 13 0;
#X connect 30 12 14 0;
#X connect 30 13 15 0;
#X connect 30 14 16 0;
#X connect 30 15 17 0;
#X connect 30 16 18 0;
#X connect 30 17 19 0;
#X connect 30 18 20 0;
#X connect 30 19 21 0;
#X restore 414 346 pd pdm_articulation;
#X obj 400 18 r DT;
#X obj 65 567 r BAR;
#X obj 65 593 outlet;
#X text 429 257 articulation scaling;
#X obj 632 32 loadbang;
#X msg 632 58 \; pd dsp 1;
#X obj 105 267 +;
#X obj 87 295 +;
#N canvas 175 12 948 686 pdm_melody_lead 0;
#X obj 565 27 inlet;
#X obj 591 608 outlet;
#X text 637 52 MIDI key number;
#X obj 219 15 inlet;
#X floatatom 591 458 5 0 0 1 FHV_(m/s) - -;
#N canvas 0 0 684 766 pdm_key_24 0;
#X obj 114 68 inlet;
#X obj 295 482 outlet;
#X obj 468 132 * -26.502;
#X obj 114 93 trigger f f f f f f;
#X obj 237 119 *;
#X obj 210 143 *;
#X obj 181 166 *;
#X obj 154 190 *;
#X obj 125 213 *;
#X obj 371 244 +;
#X obj 352 282 +;
#X obj 333 338 +;
#X obj 314 386 +;
#X obj 295 437 +;
#X obj 468 189 + 277.713;
#X obj 371 156 * 1.03973;
#X obj 268 176 * -0.0214408;
#X obj 198 236 * 0.000245325;
#X obj 143 307 * -1.47872e-006;
#X obj 76 360 * 3.6775e-009;
#X connect 0 0 3 0;
#X connect 2 0 14 0;
#X connect 3 0 8 0;
#X connect 3 1 7 0;
#X connect 3 2 6 0;
#X connect 3 3 5 0;
#X connect 3 4 4 0;
#X connect 3 5 2 0;
#X connect 3 5 4 1;
#X connect 4 0 5 1;
#X connect 4 0 15 0;
#X connect 5 0 6 1;
#X connect 5 0 16 0;
#X connect 6 0 7 1;
#X connect 6 0 17 0;
#X connect 7 0 8 1;
#X connect 7 0 18 0;
#X connect 8 0 19 0;
#X connect 9 0 10 1;
#X connect 10 0 11 1;
#X connect 11 0 12 1;
#X connect 12 0 13 1;
#X connect 13 0 1 0;
#X connect 14 0 9 1;
#X connect 15 0 9 0;
#X connect 16 0 10 0;
#X connect 17 0 11 0;
#X connect 18 0 12 0;
#X connect 19 0 13 0;
#X restore 2 110 pd pdm_key_24;
#N canvas 253 263 694 622 pdm_key_60 0;
#X obj 114 68 inlet;
#X obj 295 493 outlet;
#X obj 114 93 trigger f f f f f f;
#X obj 237 119 *;
#X obj 210 143 *;
#X obj 181 166 *;
#X obj 154 190 *;
#X obj 125 213 *;
#X obj 371 244 +;
#X obj 352 282 +;
#X obj 333 338 +;
#X obj 314 386 +;
#X obj 295 437 +;
#X obj 76 360 * 1.68006e-008;
#X obj 143 307 * -8.03823e-006;
#X obj 198 236 * 0.00159529;
#X obj 268 176 * -0.167997;
#X obj 371 156 * 9.89726;
#X obj 469 136 * -309.214;
#X obj 295 463 + 4002.16;
#X connect 0 0 2 0;
#X connect 2 0 7 0;
#X connect 2 1 6 0;
#X connect 2 2 5 0;
#X connect 2 3 4 0;
#X connect 2 4 3 0;
#X connect 2 5 3 1;
#X connect 2 5 18 0;
#X connect 3 0 4 1;
#X connect 3 0 17 0;
#X connect 4 0 5 1;
#X connect 4 0 16 0;
#X connect 5 0 6 1;
#X connect 5 0 15 0;
#X connect 6 0 7 1;
#X connect 6 0 14 0;
#X connect 7 0 13 0;
#X connect 8 0 9 1;
#X connect 9 0 10 1;
#X connect 10 0 11 1;
#X connect 11 0 12 1;
#X connect 12 0 19 0;
#X connect 13 0 12 0;
#X connect 14 0 11 0;
#X connect 15 0 10 0;
#X connect 16 0 9 0;
#X connect 17 0 8 0;
#X connect 18 0 8 1;
#X connect 19 0 1 0;
#X restore 219 110 pd pdm_key_60;
#N canvas 203 273 722 572 pdm_key_43 0;
#X obj 138 46 inlet;
#X obj 238 496 outlet;
#X obj 240 119 *;
#X obj 210 143 *;
#X obj 181 166 *;
#X obj 138 191 *;
#X obj 138 71 trigger f f f f f;
#X obj 128 255 * 3.50801e-007;
#X obj 466 130 * 72.1862;
#X obj 371 156 * -1.80994;
#X obj 267 176 * 0.0226112;
#X obj 186 204 * -0.000140873;
#X obj 227 454 - 1146.68;
#X obj 166 305 +;
#X obj 190 343 +;
#X obj 202 382 +;
#X obj 220 417 +;
#X connect 0 0 6 0;
#X connect 2 0 3 1;
#X connect 2 0 9 0;
#X connect 3 0 4 1;
#X connect 3 0 10 0;
#X connect 4 0 5 1;
#X connect 4 0 11 0;
#X connect 5 0 7 0;
#X connect 6 0 5 0;
#X connect 6 1 4 0;
#X connect 6 2 3 0;
#X connect 6 3 2 0;
#X connect 6 4 2 1;
#X connect 6 4 8 0;
#X connect 7 0 13 0;
#X connect 8 0 16 1;
#X connect 9 0 15 1;
#X connect 10 0 14 1;
#X connect 11 0 13 1;
#X connect 12 0 1 0;
#X connect 13 0 14 0;
#X connect 14 0 15 0;
#X connect 15 0 16 0;
#X connect 16 0 12 0;
#X restore 110 110 pd pdm_key_43;
#N canvas 0 0 620 580 pdm_key_72 0;
#X obj 114 44 inlet;
#X obj 314 447 outlet;
#X obj 223 100 *;
#X obj 210 143 *;
#X obj 181 166 *;
#X obj 154 190 *;
#X obj 371 244 +;
#X obj 352 282 +;
#X obj 333 338 +;
#X obj 314 386 +;
#X obj 114 69 trigger f f f f f;
#X obj 499 139 * 26.9163;
#X obj 388 148 * -0.669603;
#X obj 279 172 * 0.00832379;
#X obj 193 236 * -5.17897e-005;
#X obj 143 307 * 1.29387e-007;
#X obj 314 413 - 431.736;
#X connect 0 0 10 0;
#X connect 2 0 3 1;
#X connect 2 0 12 0;
#X connect 3 0 4 1;
#X connect 3 0 13 0;
#X connect 4 0 5 1;
#X connect 4 0 14 0;
#X connect 5 0 15 0;
#X connect 6 0 7 1;
#X connect 7 0 8 1;
#X connect 8 0 9 1;
#X connect 9 0 16 0;
#X connect 10 0 5 0;
#X connect 10 1 4 0;
#X connect 10 2 3 0;
#X connect 10 3 2 0;
#X connect 10 4 2 1;
#X connect 10 4 11 0;
#X connect 11 0 6 1;
#X connect 12 0 6 0;
#X connect 13 0 7 0;
#X connect 14 0 8 0;
#X connect 15 0 9 0;
#X connect 16 0 1 0;
#X restore 328 110 pd pdm_key_72;
#N canvas 188 264 757 662 pdm_key_91 0;
#X obj 121 28 inlet;
#X obj 321 499 outlet;
#X obj 237 119 *;
#X obj 210 143 *;
#X obj 181 166 *;
#X obj 154 190 *;
#X obj 121 53 trigger f f f f f;
#X obj 75 286 * 3.07511e-007;
#X obj 182 249 * -0.000124759;
#X obj 268 176 * 0.0202214;
#X obj 371 156 * -1.63411;
#X obj 487 131 * 65.7658;
#X obj 245 361 +;
#X obj 272 387 +;
#X obj 298 413 +;
#X obj 321 438 +;
#X obj 321 467 - 1053.21;
#X connect 0 0 6 0;
#X connect 2 0 3 1;
#X connect 2 0 10 0;
#X connect 3 0 4 1;
#X connect 3 0 9 0;
#X connect 4 0 5 1;
#X connect 4 0 8 0;
#X connect 5 0 7 0;
#X connect 6 0 5 0;
#X connect 6 1 4 0;
#X connect 6 2 3 0;
#X connect 6 3 2 0;
#X connect 6 4 2 1;
#X connect 6 4 11 0;
#X connect 7 0 12 0;
#X connect 8 0 12 1;
#X connect 9 0 13 1;
#X connect 10 0 14 1;
#X connect 11 0 15 1;
#X connect 12 0 13 0;
#X connect 13 0 14 0;
#X connect 14 0 15 0;
#X connect 15 0 16 0;
#X connect 16 0 1 0;
#X restore 438 110 pd pdm_key_91;
#X text 268 17 Sound Level (dB);
#X obj 2 85 limit 47 99;
#X obj 110 85 limit 65 103;
#X obj 219 85 limit 60 106;
#X obj 328 85 limit 65 110;
#X obj 438 85 limit 78 106;
#N canvas 40 84 1017 619 pdm_FHV_to_travel_time 0;
#X obj 17 19 inlet;
#X floatatom 420 184 5 0 0 1 ms - -;
#X obj 17 274 outlet;
#X floatatom 17 186 5 0 0 1 ms - -;
#X obj 17 136 pow -0.7377;
#X obj 17 161 * 58.39;
#X obj 420 158 * 89.96;
#X obj 420 133 pow -0.5595;
#X text 83 222 TTst = 58.39*FHV^-0.7377;
#X text 507 203 Pressed touch (Bösendorfer):;
#X text 504 216 TTpr = 89.96*FHV^-0.5595;
#X text 77 205 Struck touch (Bösendorfer):;
#X floatatom 17 253 10 0 0 1 Travel_time_(ms) - -;
#X text 63 19 FHV;
#X obj 229 141 r pdm_staccato;
#X obj 420 213 spigot;
#X obj 17 211 spigot;
#X obj 229 169 - 1;
#X text 16 309 Bösendorfer SE290 travel time curves for pressed and
struck touch taken from "Touch and temporal behavior of grand piano
actions" (Goebl \, Bresin & Galembo \, 2005).;
#X obj 523 133 loadbang;
#X msg 523 159 1;
#X text 594 132 Pressed touch is default.;
#X connect 0 0 4 0;
#X connect 0 0 7 0;
#X connect 1 0 15 0;
#X connect 3 0 16 0;
#X connect 4 0 5 0;
#X connect 5 0 3 0;
#X connect 6 0 1 0;
#X connect 7 0 6 0;
#X connect 12 0 2 0;
#X connect 14 0 16 1;
#X connect 14 0 17 0;
#X connect 15 0 12 0;
#X connect 16 0 12 0;
#X connect 17 0 15 1;
#X connect 19 0 20 0;
#X connect 20 0 15 1;
#X restore 591 481 pd pdm_FHV_to_travel_time;
#X floatatom 591 586 10 0 0 1 Travel_Time_(ms) - -;
#X obj 561 322 - 1;
#X obj 561 346 abs;
#X obj 561 375 *;
#X obj 565 52 moses 24;
#X obj 618 76 moses 43;
#X obj 671 101 moses 60;
#X obj 724 127 moses 72;
#X obj 776 154 moses 91;
#X obj 625 372 *;
#X obj 624 251 - 43;
#X obj 624 274 / 17;
#X obj 581 407 +;
#X obj 665 319 - 1;
#X obj 665 343 abs;
#X obj 665 372 *;
#X obj 724 370 *;
#X obj 684 407 +;
#X obj 724 271 / 12;
#X obj 782 315 - 1;
#X obj 782 339 abs;
#X obj 782 368 *;
#X obj 829 366 *;
#X obj 797 405 +;
#X obj 829 244 - 72;
#X obj 724 248 - 60;
#X obj 829 267 / 19;
#X obj 452 324 - 1;
#X obj 452 348 abs;
#X obj 452 377 *;
#X obj 515 374 *;
#X obj 472 409 +;
#X obj 515 253 - 24;
#X obj 515 276 / 19;
#X msg 565 81 24;
#X msg 829 180 91;
#X text 5 408 Depending on f0 a function is chosen that translates
dB to FHV. The functions are made from datafile (Bosendorfer_overView_comparison).
;
#X obj 591 562 *;
#X obj 610 535 abs;
#X obj 610 509 r ml;
#X obj 219 41 + 85;
#X connect 0 0 21 0;
#X connect 3 0 57 0;
#X connect 4 0 16 0;
#X connect 5 0 46 1;
#X connect 6 0 26 1;
#X connect 6 0 32 1;
#X connect 7 0 20 1;
#X connect 7 0 47 1;
#X connect 8 0 33 1;
#X connect 8 0 38 1;
#X connect 9 0 39 1;
#X connect 11 0 5 0;
#X connect 12 0 7 0;
#X connect 13 0 6 0;
#X connect 14 0 8 0;
#X connect 15 0 9 0;
#X connect 16 0 54 0;
#X connect 17 0 1 0;
#X connect 18 0 19 0;
#X connect 19 0 20 0;
#X connect 20 0 29 1;
#X connect 21 0 51 0;
#X connect 21 1 22 0;
#X connect 22 0 49 0;
#X connect 22 1 23 0;
#X connect 23 0 27 0;
#X connect 23 1 24 0;
#X connect 24 0 42 0;
#X connect 24 1 25 0;
#X connect 25 0 41 0;
#X connect 25 1 52 0;
#X connect 26 0 29 0;
#X connect 27 0 28 0;
#X connect 28 0 18 0;
#X connect 28 0 26 0;
#X connect 29 0 4 0;
#X connect 30 0 31 0;
#X connect 31 0 32 0;
#X connect 32 0 34 1;
#X connect 33 0 34 0;
#X connect 34 0 4 0;
#X connect 35 0 30 0;
#X connect 35 0 33 0;
#X connect 36 0 37 0;
#X connect 37 0 38 0;
#X connect 38 0 40 1;
#X connect 39 0 40 0;
#X connect 40 0 4 0;
#X connect 41 0 43 0;
#X connect 42 0 35 0;
#X connect 43 0 36 0;
#X connect 43 0 39 0;
#X connect 44 0 45 0;
#X connect 45 0 46 0;
#X connect 46 0 48 1;
#X connect 47 0 48 0;
#X connect 48 0 4 0;
#X connect 49 0 50 0;
#X connect 50 0 44 0;
#X connect 50 0 47 0;
#X connect 51 0 49 0;
#X connect 52 0 41 0;
#X connect 54 0 17 0;
#X connect 55 0 54 1;
#X connect 56 0 55 0;
#X connect 57 0 11 0;
#X connect 57 0 12 0;
#X connect 57 0 13 0;
#X connect 57 0 14 0;
#X connect 57 0 15 0;
#X restore 69 408 pd pdm_melody_lead;
#X obj 69 384 *;
#N canvas 0 260 1237 573 sl2vel 0;
#X obj 330 20 inlet;
#X obj 327 525 outlet;
#X text 1 274 SBLive mapping;
#X text 142 247 Roland 1010 mapping;
#X obj 383 21 inlet;
#X msg 383 99 0;
#X msg 445 99 1;
#X msg 546 100 2;
#X text 439 19 synth name;
#X text 10 98 using DM conversion formulas;
#X text 11 118 from "syntobjects.lsp";
#X text 141 269 Roland 1010 OrchII mapping;
#X floatatom 327 436 5 0 0 0 - - -;
#X obj 320 302 trigger f f f f;
#X obj 366 331 *;
#X obj 322 355 *;
#X text 345 275 A90 mapping;
#X msg 601 100 3;
#X msg 655 101 4;
#X msg 766 98 0;
#X text 791 133 default SBlive;
#X floatatom 470 437 5 0 0 0 - - -;
#X obj 471 302 trigger f f f f;
#X obj 517 331 *;
#X obj 473 355 *;
#X text 486 271 PMA5 mapping;
#X text 12 80 mapping sound level to midi velocity;
#X text 193 19 sound level (dB);
#X text 394 528 midi velocity;
#X obj -12 402 * 2e-005;
#X obj 27 375 * 0.0024;
#X obj 63 403 * 0.1008;
#X obj 100 376 * 3.2466;
#X obj -3 430 plus 0 0 0 0 66.603;
#X floatatom -3 454 5 0 0 0 - - -;
#X obj -8 301 trigger f f f f;
#X obj -12 374 *;
#X obj 63 326 *;
#X obj 26 349 *;
#X floatatom 183 438 5 0 0 0 - - -;
#X obj 186 297 trigger f f f f;
#X obj 242 325 *;
#X obj 191 348 *;
#X obj 247 379 * 4.0845;
#X obj 220 352 * 0.1193;
#X obj 181 379 * 0.0017;
#X obj 183 412 plus 0 0 0 63.883;
#X obj 324 385 * 0.0014;
#X obj 366 358 * 0.0984;
#X obj 393 383 * 3.447;
#X obj 319 411 plus 0 0 0 62.724;
#X obj 472 382 * 0.0011;
#X obj 516 357 * 0.1192;
#X obj 546 383 * 4.5149;
#X obj 470 411 plus 0 0 0 62.764;
#X floatatom 615 459 5 0 0 0 - - -;
#X obj 615 253 trigger f f f f;
#X obj 614 321 *;
#X obj 683 277 *;
#X obj 648 299 *;
#X text 620 214 SX-30 mapping;
#X obj 614 345 * 0.0002;
#X obj 648 367 * 0.0015;
#X obj 681 391 * 0.0267;
#X obj 698 410 * 3.8031;
#X obj 616 434 plus 0 0 0 0 64.867;
#X floatatom 785 446 5 0 0 0 - - -;
#X obj 783 291 trigger f f f f;
#X obj 783 363 *;
#X obj 858 315 *;
#X obj 821 338 *;
#X obj 784 392 * 1e-005;
#X text 775 235 Kontakt 2 mapping: Steinway D Light;
#X obj 330 162 demultiplex 0 1 2 3 4 5;
#X obj 383 57 select SBlive Roland-1010 Roland-1010-OrchII Roland-A90
Roland-PMA5 Technics-SX-P30 Kontakt-2;
#X msg 710 99 5;
#X floatatom 973 271 5 0 0 0 - - -;
#X floatatom 975 452 5 0 0 0 - - -;
#X obj 973 297 trigger f f f f;
#X obj 973 369 *;
#X obj 1048 321 *;
#X obj 1011 344 *;
#X obj 1084 371 * 4.9447;
#X obj 1049 397 * 0.1041;
#X obj 1011 371 * 0.0018;
#X obj 974 398 * 1e-005;
#X obj 975 427 plus 0 0 0 0 122.28;
#X text 1065 265 Bjurlings mappning???;
#X obj 821 365 * 0.0008;
#X obj 859 391 * 0.0402;
#X obj 894 365 * 2.6899;
#X obj 785 421 plus 0 0 0 0 62.025;
#X floatatom 336 50 5 0 0 0 - - -;
#X connect 0 0 73 0;
#X connect 0 0 92 0;
#X connect 4 0 74 0;
#X connect 5 0 73 1;
#X connect 6 0 73 1;
#X connect 7 0 73 1;
#X connect 13 1 15 0;
#X connect 13 2 14 0;
#X connect 13 3 14 1;
#X connect 13 3 49 0;
#X connect 14 0 15 1;
#X connect 14 0 48 0;
#X connect 15 0 47 0;
#X connect 17 0 73 1;
#X connect 18 0 73 1;
#X connect 19 0 73 1;
#X connect 22 1 24 0;
#X connect 22 2 23 0;
#X connect 22 3 23 1;
#X connect 22 3 53 0;
#X connect 23 0 24 1;
#X connect 23 0 52 0;
#X connect 24 0 51 0;
#X connect 29 0 33 0;
#X connect 30 0 33 1;
#X connect 31 0 33 2;
#X connect 32 0 33 3;
#X connect 33 0 34 0;
#X connect 33 0 1 0;
#X connect 35 0 36 0;
#X connect 35 1 38 0;
#X connect 35 2 37 0;
#X connect 35 3 32 0;
#X connect 35 3 37 1;
#X connect 36 0 29 0;
#X connect 37 0 38 1;
#X connect 37 0 31 0;
#X connect 38 0 36 1;
#X connect 38 0 30 0;
#X connect 40 1 42 0;
#X connect 40 2 41 0;
#X connect 40 3 41 1;
#X connect 40 3 43 0;
#X connect 41 0 42 1;
#X connect 41 0 44 0;
#X connect 42 0 45 0;
#X connect 43 0 46 2;
#X connect 44 0 46 1;
#X connect 45 0 46 0;
#X connect 46 0 39 0;
#X connect 46 0 1 0;
#X connect 47 0 50 0;
#X connect 48 0 50 1;
#X connect 49 0 50 2;
#X connect 50 0 12 0;
#X connect 50 0 1 0;
#X connect 51 0 54 0;
#X connect 52 0 54 1;
#X connect 53 0 54 2;
#X connect 54 0 21 0;
#X connect 54 0 1 0;
#X connect 56 0 57 0;
#X connect 56 1 59 0;
#X connect 56 2 58 0;
#X connect 56 3 58 1;
#X connect 56 3 64 0;
#X connect 57 0 61 0;
#X connect 58 0 59 1;
#X connect 58 0 63 0;
#X connect 59 0 57 1;
#X connect 59 0 62 0;
#X connect 61 0 65 0;
#X connect 62 0 65 1;
#X connect 63 0 65 2;
#X connect 64 0 65 3;
#X connect 65 0 55 0;
#X connect 65 0 1 0;
#X connect 67 0 68 0;
#X connect 67 1 70 0;
#X connect 67 2 69 0;
#X connect 67 3 69 1;
#X connect 67 3 90 0;
#X connect 68 0 71 0;
#X connect 69 0 70 1;
#X connect 69 0 89 0;
#X connect 70 0 68 1;
#X connect 70 0 88 0;
#X connect 71 0 91 0;
#X connect 73 0 35 0;
#X connect 73 1 40 0;
#X connect 73 2 13 0;
#X connect 73 3 22 0;
#X connect 73 4 56 0;
#X connect 73 5 67 0;
#X connect 74 0 5 0;
#X connect 74 1 6 0;
#X connect 74 2 6 0;
#X connect 74 3 7 0;
#X connect 74 4 17 0;
#X connect 74 5 18 0;
#X connect 74 6 75 0;
#X connect 74 7 19 0;
#X connect 75 0 73 1;
#X connect 76 0 78 0;
#X connect 78 0 79 0;
#X connect 78 1 81 0;
#X connect 78 2 80 0;
#X connect 78 3 80 1;
#X connect 78 3 82 0;
#X connect 79 0 85 0;
#X connect 80 0 81 1;
#X connect 80 0 83 0;
#X connect 81 0 79 1;
#X connect 81 0 84 0;
#X connect 82 0 86 3;
#X connect 83 0 86 2;
#X connect 84 0 86 1;
#X connect 85 0 86 0;
#X connect 86 0 77 0;
#X connect 88 0 91 1;
#X connect 89 0 91 2;
#X connect 90 0 91 3;
#X connect 91 0 66 0;
#X connect 91 0 1 0;
#X restore 294 518 pd sl2vel;
#X obj 69 352 +;
#X obj 354 495 r pdm_synth;
#X msg 299 578 0;
#X obj 259 553 pipe f f f 0;
#X obj 271 604 noteout;
#X obj 27 29 inlet;
#X obj 117 30 inlet;
#X obj 225 28 inlet;
#X obj 278 28 inlet;
#X text 27 6 play;
#N canvas 0 0 490 340 repeat 0;
#X obj 60 31 inlet;
#X obj 183 31 inlet;
#X obj 101 172 outlet;
#X obj 60 62 delay 2000;
#X obj 178 92 loadbang;
#X msg 178 115 0;
#X obj 101 143 spigot;
#X connect 0 0 3 0;
#X connect 1 0 6 1;
#X connect 3 0 6 0;
#X connect 4 0 5 0;
#X connect 5 0 6 1;
#X connect 6 0 2 0;
#X restore 165 165 pd repeat;
#X obj 133 138 qlist;
#X msg 27 55 bang;
#X text 116 9 stop;
#X text 223 6 repeat;
#X text 280 6 open;
#X msg 117 83 rewind;
#X obj 278 57 openpanel;
#X msg 278 84 read \$1;
#X obj 27 82 s pdm_play;
#X obj 125 58 s pdm_stop;
#N canvas 0 0 159 282 pdm_ml_sign 0;
#X obj 13 12 r ml;
#X obj 32 74 abs;
#X obj 13 98 /;
#X obj 13 38 t f f;
#X obj 13 128 outlet;
#X connect 0 0 3 0;
#X connect 1 0 2 1;
#X connect 2 0 4 0;
#X connect 3 0 2 0;
#X connect 3 1 1 0;
#X restore 98 357 pd pdm_ml_sign;
#N canvas 0 0 225 475 pdm_melody_gain 0;
#X obj 7 34 == 1;
#X obj 7 59 moses 1;
#X obj 77 59 r melody_gain;
#X floatatom 58 137 5 0 0 0 - - -;
#X obj 58 110 f;
#X obj 58 83 bng 15 250 50 0 empty empty empty 0 -6 0 8 -262144 -1
-1;
#X obj 7 162 outlet;
#X obj 7 7 inlet;
#X msg 7 83 0;
#X connect 0 0 1 0;
#X connect 1 0 8 0;
#X connect 1 1 5 0;
#X connect 2 0 4 1;
#X connect 3 0 6 0;
#X connect 4 0 3 0;
#X connect 5 0 4 0;
#X connect 7 0 0 0;
#X connect 8 0 6 0;
#X restore 69 328 pd pdm_melody_gain;
#X obj 256 466 pipe f f f f 0;
#X floatatom 69 437 5 0 0 0 - - -;
#N canvas 0 0 784 662 all_other_pdm_data 0;
#X obj 183 129 pgmout;
#X obj 183 103 unpack f f;
#X obj 183 50 r PROGRAM;
#X text 183 154 program change;
#X obj 186 398 unpack f f;
#X obj 186 450 ctlout 7;
#X obj 186 348 r VOL;
#X obj 41 46 r FILETYPE;
#X obj 41 72 print FILETYPE;
#X obj 41 98 r VERSION;
#X obj 41 124 print VERSION;
#X obj 41 150 r HEADERSTART;
#X obj 41 228 r TRACKNAME;
#X obj 41 254 print TRACKNAME;
#X obj 41 280 r SYNTH;
#X obj 41 306 print SYNTH;
#X obj 46 508 r HEADEREND;
#X text 41 22 all header data;
#X obj 41 176 r SCORENAME;
#X obj 41 202 print SCORENAME;
#X obj 41 358 r TRACKDELAY;
#X obj 46 378 print TRACKDELAY;
#X obj 197 74 print PROGRAM;
#X obj 198 374 print VOL;
#X obj 41 332 unpack s f;
#N canvas 0 217 1248 587 vol2midivolume 0;
#X obj 329 20 inlet;
#X obj 327 525 outlet;
#X text 18 220 SBLive mapping;
#X floatatom 274 453 5 0 0 0 - - -;
#X obj 245 318 trigger f f f f;
#X obj 321 347 *;
#X obj 277 371 *;
#X text 249 217 Roland 1010 mapping;
#X obj 382 21 inlet;
#X floatatom 245 295 5 0 0 0 - - -;
#X msg 383 108 0;
#X msg 493 106 1;
#X msg 601 104 2;
#X text 439 19 synth name;
#X text 15 265 0.0002x3+0.0581x2+5.1593x+124.52;
#X text 12 80 mapping vol to midi volume;
#X text 10 98 using DM conversion formulas;
#X text 11 118 from "syntobjects.lsp";
#X floatatom 44 452 5 0 0 0 - - -;
#X obj 11 317 trigger f f f f;
#X obj 87 347 *;
#X obj 45 371 *;
#X floatatom 11 294 5 0 0 0 - - -;
#X obj 15 398 * 0.0002;
#X obj 87 398 * 0.0581;
#X obj 158 399 * 5.1593;
#X obj 44 426 plus 0 0 0 124.52;
#X obj 249 397 * 0.0023;
#X obj 321 397 * 0.1969;
#X obj 393 396 * 7.2826;
#X obj 274 427 plus 0 0 0 126.16;
#X text 248 239 Roland 1010 OrchII mapping;
#X floatatom 502 452 5 0 0 0 - - -;
#X obj 473 317 trigger f f f f;
#X obj 549 346 *;
#X obj 505 370 *;
#X floatatom 473 294 5 0 0 0 - - -;
#X text 476 258 A90 mapping;
#X obj 477 396 * 0.0027;
#X obj 549 397 * 0.2322;
#X obj 621 395 * 7.9045;
#X obj 502 426 plus 0 0 0 125.7;
#X obj 330 162 demultiplex 0 1 2 3 4;
#X obj 383 57 select SBlive Roland-1010 Roland-1010-OrchII Roland-A90
Roland-PMA5 Technics-SX-P30;
#X msg 673 105 3;
#X msg 744 106 4;
#X msg 814 104 0;
#X text 791 133 default SBlive;
#X floatatom 733 452 5 0 0 0 - - -;
#X obj 704 317 trigger f f f f;
#X obj 780 346 *;
#X obj 736 370 *;
#X floatatom 704 294 5 0 0 0 - - -;
#X text 702 261 PMA5 mapping;
#X floatatom 954 448 5 0 0 0 - - -;
#X obj 925 313 trigger f f f f;
#X obj 1001 342 *;
#X obj 957 366 *;
#X floatatom 925 290 5 0 0 0 - - -;
#X text 922 257 SX-P30 mapping;
#X obj 708 396 * 0.0013;
#X obj 780 397 * 0.1652;
#X obj 852 395 * 7.3794;
#X obj 733 426 plus 0 0 0 125.09;
#X obj 768 159 print Warning_synth_not_implemented(using_SBlive);
#X text 250 18 vol (dB);
#X text 393 528 midi volume;
#X obj 929 392 * -69046;
#X obj 1001 393 * 25857;
#X obj 1073 391 * 2507.8;
#X obj 955 423 plus 0 0 0 110.46;
#X text 912 227 ****coefficients wrong *****;
#X connect 0 0 42 0;
#X connect 3 0 1 0;
#X connect 4 1 6 0;
#X connect 4 2 5 0;
#X connect 4 3 5 1;
#X connect 4 3 29 0;
#X connect 5 0 6 1;
#X connect 5 0 28 0;
#X connect 6 0 27 0;
#X connect 8 0 43 0;
#X connect 9 0 4 0;
#X connect 10 0 42 1;
#X connect 11 0 42 1;
#X connect 12 0 42 1;
#X connect 18 0 1 0;
#X connect 19 1 21 0;
#X connect 19 2 20 0;
#X connect 19 3 20 1;
#X connect 19 3 25 0;
#X connect 20 0 21 1;
#X connect 20 0 24 0;
#X connect 21 0 23 0;
#X connect 22 0 19 0;
#X connect 23 0 26 0;
#X connect 24 0 26 1;
#X connect 25 0 26 2;
#X connect 26 0 18 0;
#X connect 27 0 30 0;
#X connect 28 0 30 1;
#X connect 29 0 30 2;
#X connect 30 0 3 0;
#X connect 32 0 1 0;
#X connect 33 1 35 0;
#X connect 33 2 34 0;
#X connect 33 3 34 1;
#X connect 33 3 40 0;
#X connect 34 0 35 1;
#X connect 34 0 39 0;
#X connect 35 0 38 0;
#X connect 36 0 33 0;
#X connect 38 0 41 0;
#X connect 39 0 41 1;
#X connect 40 0 41 2;
#X connect 41 0 32 0;
#X connect 42 0 22 0;
#X connect 42 1 9 0;
#X connect 42 2 36 0;
#X connect 42 3 52 0;
#X connect 42 4 58 0;
#X connect 43 0 10 0;
#X connect 43 1 11 0;
#X connect 43 2 11 0;
#X connect 43 3 12 0;
#X connect 43 4 44 0;
#X connect 43 5 45 0;
#X connect 43 6 46 0;
#X connect 43 6 64 0;
#X connect 44 0 42 1;
#X connect 45 0 42 1;
#X connect 46 0 42 1;
#X connect 48 0 1 0;
#X connect 49 1 51 0;
#X connect 49 2 50 0;
#X connect 49 3 50 1;
#X connect 49 3 62 0;
#X connect 50 0 51 1;
#X connect 50 0 61 0;
#X connect 51 0 60 0;
#X connect 52 0 49 0;
#X connect 54 0 1 0;
#X connect 55 1 57 0;
#X connect 55 2 56 0;
#X connect 55 3 56 1;
#X connect 55 3 69 0;
#X connect 56 0 57 1;
#X connect 56 0 68 0;
#X connect 57 0 67 0;
#X connect 58 0 55 0;
#X connect 60 0 63 0;
#X connect 61 0 63 1;
#X connect 62 0 63 2;
#X connect 63 0 48 0;
#X connect 67 0 70 0;
#X connect 68 0 70 1;
#X connect 69 0 70 2;
#X connect 70 0 54 0;
#X restore 186 424 pd vol2midivolume;
#X text 186 475 midi volume;
#X obj 46 404 r CHORD;
#X obj 46 430 print CHORD;
#X obj 46 456 r METER;
#X obj 46 482 r TEMPO;
#X obj 282 394 r pdm_synth;
#X obj 316 103 unpack f f;
#X obj 316 50 r BANKMSB;
#X obj 324 78 print BANKMSB;
#X text 316 154 bank msb;
#X obj 316 129 ctlout 0;
#X obj 444 131 unpack f f;
#X obj 444 78 r BANKLSB;
#X obj 451 102 print BANKLSB;
#X obj 444 157 ctlout 32;
#X text 444 182 bank lsb;
#X obj 185 257 unpack f f;
#X obj 310 253 unpack f f;
#X obj 185 206 r PAN;
#X obj 192 232 print PAN;
#X text 185 308 pan;
#X obj 185 283 ctlout 10;
#X obj 310 279 ctlout 91;
#X obj 310 206 r REVERB;
#X obj 317 232 print REVERB;
#X text 310 304 reverb;
#X connect 1 0 0 0;
#X connect 1 1 0 1;
#X connect 2 0 1 0;
#X connect 2 0 22 0;
#X connect 4 0 25 0;
#X connect 4 1 5 2;
#X connect 6 0 4 0;
#X connect 6 0 23 0;
#X connect 7 0 8 0;
#X connect 9 0 10 0;
#X connect 12 0 13 0;
#X connect 14 0 15 0;
#X connect 14 0 24 0;
#X connect 18 0 19 0;
#X connect 20 0 21 0;
#X connect 25 0 5 0;
#X connect 27 0 28 0;
#X connect 31 0 25 1;
#X connect 32 0 36 0;
#X connect 32 1 36 2;
#X connect 33 0 32 0;
#X connect 33 0 34 0;
#X connect 37 0 40 0;
#X connect 37 1 40 2;
#X connect 38 0 37 0;
#X connect 38 0 39 0;
#X connect 42 0 47 0;
#X connect 42 1 47 2;
#X connect 43 0 48 0;
#X connect 43 1 48 2;
#X connect 44 0 42 0;
#X connect 44 0 45 0;
#X connect 49 0 43 0;
#X connect 49 0 50 0;
#X restore 556 134 pd all_other_pdm_data;
#X obj 237 232 unpack f f f f;
#X connect 1 0 50 0;
#X connect 3 0 2 0;
#X connect 3 0 7 1;
#X connect 4 0 3 0;
#X connect 7 0 10 0;
#X connect 10 0 25 0;
#X connect 11 0 13 0;
#X connect 13 0 12 0;
#X connect 13 0 22 0;
#X connect 14 0 11 0;
#X connect 14 0 65 0;
#X connect 15 0 4 0;
#X connect 15 1 3 1;
#X connect 16 0 62 2;
#X connect 18 0 20 0;
#X connect 19 0 34 1;
#X connect 20 0 0 0;
#X connect 20 0 13 1;
#X connect 20 0 15 0;
#X connect 21 0 20 1;
#X connect 22 0 1 0;
#X connect 23 0 26 0;
#X connect 24 0 27 0;
#X connect 25 0 16 0;
#X connect 26 0 34 0;
#X connect 27 0 10 1;
#X connect 28 0 18 0;
#X connect 29 0 30 0;
#X connect 32 0 33 0;
#X connect 34 0 35 1;
#X connect 35 0 39 1;
#X connect 36 0 62 4;
#X connect 36 0 63 0;
#X connect 37 0 36 0;
#X connect 38 0 42 1;
#X connect 38 0 43 1;
#X connect 39 0 37 0;
#X connect 39 0 62 1;
#X connect 40 0 38 1;
#X connect 41 0 43 1;
#X connect 42 0 43 0;
#X connect 42 1 41 0;
#X connect 42 2 43 2;
#X connect 44 0 51 0;
#X connect 45 0 55 0;
#X connect 45 0 59 0;
#X connect 46 0 49 1;
#X connect 47 0 56 0;
#X connect 49 0 50 0;
#X connect 50 1 49 0;
#X connect 51 0 50 0;
#X connect 51 0 58 0;
#X connect 55 0 50 0;
#X connect 56 0 57 0;
#X connect 57 0 50 0;
#X connect 60 0 37 1;
#X connect 61 0 39 0;
#X connect 62 0 42 0;
#X connect 62 0 43 0;
#X connect 62 1 38 0;
#X connect 62 2 42 3;
#X connect 62 3 43 2;
#X connect 62 3 42 2;
#X connect 65 0 36 1;
#X connect 65 0 62 0;
#X connect 65 1 61 0;
#X connect 65 1 62 3;
#X connect 65 2 35 0;
#X connect 65 3 7 0;
#X restore -20 114 pd pdm_expressive_sequencer;
#X obj 210 33 cnv 15 225 145 empty empty User_interfaces 10 10 0 18
-228856 -4160 0;
#N canvas 1146 192 529 620 all_performance_rules 1;
#X obj 49 75 hsl 128 20 -5 5 0 0 dmk1 dmk1 empty -2 -6 0 8 -225271
-1 -1 6350 1;
#X obj -2 75 nbx 4 20 -1e+037 1e+037 0 0 dmk1 dmk1 empty 0 -6 0 10
-225271 -1 -1 0 256;
#X text 351 51 k tempo;
#X obj 410 75 nbx 4 20 -1e+037 1e+037 0 0 dms1 dmk1 empty 0 -6 0 10
-262131 -1 -1 0 256;
#X obj 362 75 nbx 4 20 -1e+037 1e+037 0 0 dmt1 dmk1 empty 0 -6 0 10
-261681 -1 -1 0 256;
#X text 459 50 k art;
#X text 414 51 k SL;
#X obj 49 95 hsl 128 20 -5 5 0 0 dmk2 dmk2 empty -2 -6 0 8 -225271
-1 -1 10160 1;
#X obj -2 95 nbx 4 20 -1e+037 1e+037 0 0 dmk2 dmk2 empty 0 -6 0 10
-225271 -1 -1 3 256;
#X obj 410 95 nbx 4 20 -1e+037 1e+037 0 0 dms2 dmk2 empty 0 -6 0 10
-262131 -1 -1 3 256;
#X obj 362 95 nbx 4 20 -1e+037 1e+037 0 0 dmt2 dmk2 empty 0 -6 0 10
-261681 -1 -1 3 256;
#X obj 49 115 hsl 128 20 -5 5 0 0 dmk3 dmk3 empty -2 -6 0 8 -225271
-1 -1 10160 1;
#X obj -2 115 nbx 4 20 -1e+037 1e+037 0 0 dmk3 dmk3 empty 0 -6 0 10
-225271 -1 -1 3 256;
#X obj 410 115 nbx 4 20 -1e+037 1e+037 0 0 dms3 dmk3 empty 0 -6 0 10
-262131 -1 -1 3 256;
#X obj 362 115 nbx 4 20 -1e+037 1e+037 0 0 dmt3 dmk3 empty 0 -6 0 10
-261681 -1 -1 3 256;
#X obj 49 135 hsl 128 20 -5 5 0 0 dmk4 dmk4 empty -2 -6 0 8 -225271
-1 -1 6350 1;
#X obj -2 135 nbx 4 20 -1e+037 1e+037 0 0 dmk4 dmk4 empty 0 -6 0 10
-225271 -1 -1 0 256;
#X obj 410 135 nbx 4 20 -1e+037 1e+037 0 0 dms4 dmk4 empty 0 -6 0 10
-262131 -1 -1 0 256;
#X obj 362 135 nbx 4 20 -1e+037 1e+037 0 0 dmt4 dmk4 empty 0 -6 0 10
-261681 -1 -1 0 256;
#X obj 49 155 hsl 128 20 -5 5 0 0 dmk5 dmk5 empty -2 -6 0 8 -225271
-1 -1 6350 1;
#X obj -2 155 nbx 4 20 -1e+037 1e+037 0 0 dmk5 dmk5 empty 0 -6 0 10
-225271 -1 -1 0 256;
#X obj 410 155 nbx 4 20 -1e+037 1e+037 0 0 dms5 dmk5 empty 0 -6 0 10
-262131 -1 -1 0 256;
#X obj 362 155 nbx 4 20 -1e+037 1e+037 0 0 dmt5 dmk5 empty 0 -6 0 10
-261681 -1 -1 0 256;
#X obj 49 175 hsl 128 20 -5 5 0 0 dmk6 dmk6 empty -2 -6 0 8 -225271
-1 -1 6350 1;
#X obj -2 175 nbx 4 20 -1e+037 1e+037 0 0 dmk6 dmk6 empty 0 -6 0 10
-225271 -1 -1 0 256;
#X obj 410 175 nbx 4 20 -1e+037 1e+037 0 0 dms6 dmk6 empty 0 -6 0 10
-262131 -1 -1 0 256;
#X obj 362 175 nbx 4 20 -1e+037 1e+037 0 0 dmt6 dmk6 empty 0 -6 0 10
-261681 -1 -1 0 256;
#X obj 49 195 hsl 128 20 -5 5 0 0 dmk7 dmk7 empty -2 -6 0 8 -225271
-1 -1 6350 1;
#X obj -2 195 nbx 4 20 -1e+037 1e+037 0 0 dmk7 dmk7 empty 0 -6 0 10
-225271 -1 -1 0 256;
#X obj 362 195 nbx 4 20 -1e+037 1e+037 0 0 dmt7 dmk7 empty 0 -6 0 10
-261681 -1 -1 0 256;
#X obj 460 236 nbx 4 20 -1e+037 1e+037 0 0 dma9 dmk9 empty 0 -6 0 10
-228992 -1 -1 1 256;
#X obj 49 215 hsl 128 20 -5 5 0 0 dmk8 dmk8 empty -2 -6 0 8 -225271
-1 -1 6985 1;
#X obj -2 215 nbx 4 20 -1e+037 1e+037 0 0 dmk8 dmk8 empty 0 -6 0 10
-225271 -1 -1 0.5 256;
#X obj 410 295 nbx 4 20 -1e+037 1e+037 0 0 dms12 dmk12 empty 0 -6 0
10 -262131 -1 -1 1 256;
#X obj 49 235 hsl 128 20 -5 5 0 0 dmk9 dmk9 empty -2 -6 0 8 -225271
-1 -1 7620 1;
#X obj -2 235 nbx 4 20 -1e+037 1e+037 0 0 dmk9 dmk9 empty 0 -6 0 10
-225271 -1 -1 1 256;
#X obj 410 315 nbx 4 20 -1e+037 1e+037 0 0 dms13 dmk13 empty 0 -6 0
10 -262131 -1 -1 -2 256;
#X obj 362 235 nbx 4 20 -1e+037 1e+037 0 0 dmt9 dmk9 empty 0 -6 0 10
-261681 -1 -1 1 256;
#X obj 50 503 hsl 128 20 0.5 2 0 0 dmtsc dmtsc empty -2 -6 0 8 -261681
-1 -1 847 1;
#X obj -1 503 nbx 4 20 -1e+037 1e+037 0 0 dmtsc dmtsc empty 0 -6 0
10 -261681 -1 -1 0.6 256;
#X obj 50 523 hsl 128 20 -10 10 0 0 dmssc dmssc empty -2 -6 0 8 -262131
-1 -1 1905 1;
#X obj -1 523 nbx 4 20 -1e+037 1e+037 0 0 dmssc dmssc empty 0 -6 0
10 -262131 -1 -1 -7 256;
#X text 192 503 Tempo;
#X text 192 523 Sound level;
#X text 33 51 k values;
#X obj 195 19 bng 20 250 50 0 empty empty nominal -12 -10 0 10 -195568
-1 -1;
#X text 31 479 Overall scaling;
#X text 191 75 1 Phrase arch 4;
#X text 191 95 2 Phrase arch 5;
#X text 191 115 3 Phrase arch 6;
#N canvas 476 0 808 766 rule_presets 0;
#X obj 51 32 inlet;
#X obj 184 31 inlet;
#X obj 260 37 loadbang;
#X obj 347 35 inlet;
#X msg 347 77 \; dmk1 1.2 \; dmk2 2.5 \; dmk3 2.5 \; dmk4 0 \; dmk5
0 \; dmk6 0 \; dmk7 0 \; dmk8 0 \; dmk9 1.5 \; dmk10 1 \; dmk11 1.5
\; dmk12 1 \; dmk13 1.5 \; dmk14 0 \; dmk15 1 \; dmk16 1.2 \; dmk17
1 \; dmk18 1 \; dmk19 0 \; dmk20 0 \; dmtsc 1 \; dmssc 0 \; melody_gain
4 \; ml 1 \;;
#X msg 51 70 \; dmk1 0 \; dmk2 0 \; dmk3 0 \; dmk4 0 \; dmk5 0 \; dmk6
0 \; dmk7 0 \; dmk8 0 \; dmk9 0 \; dmk10 0 \; dmk11 0 \; dmk12 0 \;
dmk13 0 \; dmk14 0 \; dmk15 0 \; dmk16 0 \; dmk17 0 \; dmk18 0 \; dmk19
0 \; dmk20 0 \; dmtsc 1 \; dmssc 0 \; melody_gain 0 \; ml 0 \;;
#X msg 183 72 \; dmk1 0 \; dmk2 1.5 \; dmk3 1 \; dmk4 0 \; dmk5 0 \;
dmk6 0 \; dmk7 0 \; dmk8 0 \; dmk9 1.2 \; dmk10 1 \; dmk11 1 \; dmk12
1 \; dmk13 1 \; dmk14 0 \; dmk15 1 \; dmk16 1 \; dmk17 1 \; dmk18 1
\; dmk19 0 \; dmk20 0 \; dmtsc 1 \; dmssc 0 \; melody_gain 4 \; ml
0.5 \;;
#X connect 0 0 5 0;
#X connect 1 0 6 0;
#X connect 2 0 6 0;
#X connect 3 0 4 0;
#X restore 207 42 pd rule_presets;
#X obj 259 19 bng 20 250 50 0 empty empty neutral -20 -10 0 10 -24198
-1 -1;
#X obj 313 19 bng 20 250 50 0 empty empty expressive -20 -10 0 10 -260818
-1 -1;
#X obj 49 255 hsl 128 20 -5 5 0 0 dmk10 dmk10 empty -2 -6 0 8 -225271
-1 -1 7620 1;
#X obj -2 255 nbx 4 20 -1e+037 1e+037 0 0 dmk10 dmk10 empty 0 -6 0
10 -225271 -1 -1 1 256;
#X obj 410 255 nbx 4 20 -1e+037 1e+037 0 0 dms10 dmk10 empty 0 -6 0
10 -262131 -1 -1 1 256;
#X obj 362 215 nbx 4 20 -1e+037 1e+037 0 0 dmt8 dmk8 empty 0 -6 0 10
-261681 -1 -1 0.5 256;
#X obj 49 275 hsl 128 20 -5 5 0 0 dmk11 dmk11 empty -2 -6 0 8 -225271
-1 -1 7620 1;
#X obj -2 275 nbx 4 20 -1e+037 1e+037 0 0 dmk11 dmk11 empty 0 -6 0
10 -225271 -1 -1 1 256;
#X obj 410 275 nbx 4 20 -1e+037 1e+037 0 0 dms11 dmk11 empty 0 -6 0
10 -262131 -1 -1 1 256;
#X obj 362 275 nbx 4 20 -1e+037 1e+037 0 0 dmt11 dmk11 empty 0 -6 0
10 -261681 -1 -1 1 256;
#X obj 49 295 hsl 128 20 -5 5 0 0 dmk12 dmk12 empty -2 -6 0 8 -225271
-1 -1 7620 1;
#X obj -2 295 nbx 4 20 -1e+037 1e+037 0 0 dmk12 dmk12 empty 0 -6 0
10 -225271 -1 -1 1 256;
#X obj 362 295 nbx 4 20 -1e+037 1e+037 0 0 dmt12 dmk12 empty 0 -6 0
10 -261681 -1 -1 1 256;
#X obj 49 315 hsl 128 20 -5 5 0 0 dmk13 dmk13 empty -2 -6 0 8 -225271
-1 -1 3810 1;
#X obj -2 315 nbx 4 20 -1e+037 1e+037 0 0 dmk13 dmk13 empty 0 -6 0
10 -225271 -1 -1 -2 256;
#X obj 362 315 nbx 4 20 -1e+037 1e+037 0 0 dmt13 dmk13 empty 0 -6 0
10 -261681 -1 -1 -2 256;
#X obj 49 335 hsl 128 20 -5 5 0 0 dmk14 dmk14 empty -2 -6 0 8 -225271
-1 -1 6350 1;
#X obj -2 335 nbx 4 20 -1e+037 1e+037 0 0 dmk14 dmk14 empty 0 -6 0
10 -225271 -1 -1 0 256;
#X obj 49 355 hsl 128 20 -5 5 0 0 dmk15 dmk15 empty -2 -6 0 8 -225271
-1 -1 7620 1;
#X obj -2 355 nbx 4 20 -1e+037 1e+037 0 0 dmk15 dmk15 empty 0 -6 0
10 -225271 -1 -1 1 256;
#X obj 49 375 hsl 128 20 -5 5 0 0 dmk16 dmk16 empty -2 -6 0 8 -225271
-1 -1 7366 1;
#X obj -2 375 nbx 4 20 -1e+037 1e+037 0 0 dmk16 dmk16 empty 0 -6 0
10 -225271 -1 -1 0.8 256;
#X obj 459 375 nbx 4 20 -1e+037 1e+037 0 0 dma16 dmk16 empty 0 -6 0
10 -228992 -1 -1 0.8 256;
#X obj 49 395 hsl 128 20 -5 5 0 0 dmk17 dmk17 empty -2 -6 0 8 -225271
-1 -1 7620 1;
#X obj -2 395 nbx 4 20 -1e+037 1e+037 0 0 dmk17 dmk17 empty 0 -6 0
10 -225271 -1 -1 1 256;
#X obj 459 395 nbx 4 20 -1e+037 1e+037 0 0 dma17 dmk17 empty 0 -6 0
10 -228992 -1 -1 1 256;
#X obj 49 415 hsl 128 20 -5 5 0 0 dmk18 dmk18 empty -2 -6 0 8 -225271
-1 -1 7620 1;
#X obj -2 415 nbx 4 20 -1e+037 1e+037 0 0 dmk18 dmk18 empty 0 -6 0
10 -225271 -1 -1 1 256;
#X obj 362 335 nbx 4 20 -1e+037 1e+037 0 0 dmt14 dmk14 empty 0 -6 0
10 -261681 -1 -1 0 256;
#X obj 459 415 nbx 4 20 -1e+037 1e+037 0 0 dma18 dmk18 empty 0 -6 0
10 -228992 -1 -1 1 256;
#X obj 49 435 hsl 128 20 -5 5 0 0 dmk19 dmk19 empty -2 -6 0 8 -225271
-1 -1 6350 1;
#X obj -2 435 nbx 4 20 -1e+037 1e+037 0 0 dmk19 dmk19 empty 0 -6 0
10 -225271 -1 -1 0 256;
#X obj 362 355 nbx 4 20 -1e+037 1e+037 0 0 dmt15 dmk15 empty 0 -6 0
10 -261681 -1 -1 1 256;
#X obj 459 435 nbx 4 20 -1e+037 1e+037 0 0 dma19 dmk19 empty 0 -6 0
10 -228992 -1 -1 0 256;
#X obj 49 455 hsl 128 20 -5 5 0 0 dmk20 dmk20 empty -2 -6 0 8 -225271
-1 -1 6350 1;
#X obj -2 455 nbx 4 20 -1e+037 1e+037 0 0 dmk20 dmk20 empty 0 -6 0
10 -225271 -1 -1 0 256;
#X obj 410 455 nbx 4 20 -1e+037 1e+037 0 0 dms20 dmk20 empty 0 -6 0
10 -262131 -1 -1 0 256;
#X obj 362 455 nbx 4 20 -1e+037 1e+037 0 0 dmt20 dmk20 empty 0 -6 0
10 -261681 -1 -1 0 256;
#X obj 459 455 nbx 4 20 -1e+037 1e+037 0 0 dma20 dmk20 empty 0 -6 0
10 -228992 -1 -1 0 256;
#X text 191 135 4 Phrase arch 7;
#X text 191 155 5 Phrase ritardando 4;
#X text 192 175 6 Phrase ritardando 5;
#X text 191 195 7 Phrase ritardando 6;
#X text 191 216 8 Final ritard;
#X text 191 236 9 Punctuation;
#X text 183 256 10 High loud;
#X text 183 276 11 Melodic charge;
#X text 183 296 12 Harmonic charge;
#X text 183 316 13 Duration contrast;
#X text 183 336 14 Inegales;
#X text 183 356 15 Double duration;
#X text 183 376 16 Repetition art;
#X text 183 396 17 Score legato art;
#X text 183 416 18 Score staccato art;
#X text 183 436 19 Overall articulation;
#X text 183 455 20;
#X obj 410 195 nbx 4 20 -1e+037 1e+037 0 0 dms7 dmk7 empty 0 -6 0 10
-262131 -1 -1 0 256;
#X obj 50 571 hsl 128 20 -10 10 0 0 melody_gain melody_gain empty -2
-6 0 8 -260818 -1 -1 8890 1;
#X obj -1 571 nbx 4 20 -1e+037 1e+037 0 0 melody_gain melody_gain empty
0 -6 0 10 -260818 -1 -1 4 256;
#X obj 50 591 hsl 128 20 -2 2 0 0 ml ml empty -2 -6 0 8 -260818 -1
-1 7937 1;
#X obj -1 591 nbx 4 20 -1e+037 1e+037 0 0 ml ml empty 0 -6 0 10 -260818
-1 -1 0.5 256;
#X text 29 547 Melody Lead;
#X text 191 591 Synchronization (melody lead);
#X text 192 571 Melody Gain (dB);
#X connect 45 0 50 0;
#X connect 51 0 50 1;
#X connect 52 0 50 2;
#X restore 219 64 pd all_performance_rules;
#N canvas 101 61 429 475 2D_kinematics_energy_space 0;
#X obj 464 135 vsl 20 128 -1 1 0 0 dmx3 dmx3 Kinematics -30 -12 0 12
-261681 -143491 -1 0 1;
#X obj 557 135 vsl 20 128 -1 1 0 0 dmy3 dmy3 Energy -20 -12 0 12 -225280
-1 -1 0 1;
#X text 624 225 comment;
#X obj 12 41 grid grid1 400 -1 1 400 -1 1 0 0.005 0.005 1 1 144 310
;
#X obj 16 42 cnv 25 100 25 empty empty E+K- 1 13 0 18 -9255 -261681
0;
#X obj 349 42 cnv 25 60 25 empty empty E+K+ 1 13 0 18 -9255 -261681
0;
#X obj 19 413 cnv 25 100 25 empty empty E-K- 1 13 0 18 -9255 -261681
0;
#X obj 335 411 cnv 25 70 25 empty empty E-K+ 1 13 0 18 -9255 -261681
0;
#X obj 13 440 s dmx3;
#X obj 365 440 s dmy3;
#X obj 85 5 cnv 25 60 25 empty empty Kinematics-Energy 1 13 0 18 -262144
-355 0;
#N canvas 0 0 789 364 kin_energy_interp 0;
#X text 45 5 Phrasing;
#N canvas 229 194 552 187 interpolate_k 0;
#X obj 20 76 expr (1.0 / 4.0) * (($f5 - $f6 - $f4 + $f3) * $f1 + $f5
+ $f6 - $f4 - $f3) * $f2 + (1.0 / 4.0) * (($f5 - $f6 + $f4 - $f3) *
$f1 + $f6 + $f5 + $f4 + $f3);
#X obj 203 14 inlet;
#X obj 295 14 inlet;
#X obj 387 13 inlet;
#X obj 479 14 inlet;
#X obj 20 138 outlet;
#X obj 76 40 t b f;
#X obj 20 13 r dmx3;
#X obj 78 13 r dmy3;
#X connect 0 0 5 0;
#X connect 1 0 0 2;
#X connect 2 0 0 3;
#X connect 3 0 0 4;
#X connect 4 0 0 5;
#X connect 6 0 0 0;
#X connect 6 1 0 1;
#X connect 7 0 0 0;
#X connect 8 0 6 0;
#X restore 29 109 pd interpolate_k;
#X obj 29 158 s dmk2;
#X obj 42 134 s dmk3;
#X obj 56 41 loadbang;
#X text 233 4 Final ritard;
#X text 401 2 Punctuation;
#X text 557 7 Duration contrast;
#X text 35 191 Repetition art;
#X text 200 191 Overall articulation;
#X text 400 191 Tempo scaling;
#X text 552 192 Sound level scaling;
#N canvas 229 194 546 181 interpolate_k 0;
#X obj 20 76 expr (1.0 / 4.0) * (($f5 - $f6 - $f4 + $f3) * $f1 + $f5
+ $f6 - $f4 - $f3) * $f2 + (1.0 / 4.0) * (($f5 - $f6 + $f4 - $f3) *
$f1 + $f6 + $f5 + $f4 + $f3);
#X obj 203 14 inlet;
#X obj 295 14 inlet;
#X obj 387 13 inlet;
#X obj 479 14 inlet;
#X obj 20 138 outlet;
#X obj 76 40 t b f;
#X obj 20 13 r dmx3;
#X obj 76 13 r dmy3;
#X connect 0 0 5 0;
#X connect 1 0 0 2;
#X connect 2 0 0 3;
#X connect 3 0 0 4;
#X connect 4 0 0 5;
#X connect 6 0 0 0;
#X connect 6 1 0 1;
#X connect 7 0 0 0;
#X connect 8 0 6 0;
#X restore 217 109 pd interpolate_k;
#X obj 241 55 loadbang;
#X msg 258 84 0;
#N canvas 229 194 556 191 interpolate_k 0;
#X obj 20 76 expr (1.0 / 4.0) * (($f5 - $f6 - $f4 + $f3) * $f1 + $f5
+ $f6 - $f4 - $f3) * $f2 + (1.0 / 4.0) * (($f5 - $f6 + $f4 - $f3) *
$f1 + $f6 + $f5 + $f4 + $f3);
#X obj 203 14 inlet;
#X obj 295 14 inlet;
#X obj 387 13 inlet;
#X obj 479 14 inlet;
#X obj 20 138 outlet;
#X obj 76 40 t b f;
#X obj 20 13 r dmx3;
#X obj 76 13 r dmy3;
#X connect 0 0 5 0;
#X connect 1 0 0 2;
#X connect 2 0 0 3;
#X connect 3 0 0 4;
#X connect 4 0 0 5;
#X connect 6 0 0 0;
#X connect 6 1 0 1;
#X connect 7 0 0 0;
#X connect 8 0 6 0;
#X restore 394 104 pd interpolate_k;
#X obj 418 50 loadbang;
#N canvas 229 194 546 181 interpolate_k 0;
#X obj 20 76 expr (1.0 / 4.0) * (($f5 - $f6 - $f4 + $f3) * $f1 + $f5
+ $f6 - $f4 - $f3) * $f2 + (1.0 / 4.0) * (($f5 - $f6 + $f4 - $f3) *
$f1 + $f6 + $f5 + $f4 + $f3);
#X obj 203 14 inlet;
#X obj 295 14 inlet;
#X obj 387 13 inlet;
#X obj 479 14 inlet;
#X obj 20 138 outlet;
#X obj 76 40 t b f;
#X obj 20 13 r dmx3;
#X obj 76 13 r dmy3;
#X connect 0 0 5 0;
#X connect 1 0 0 2;
#X connect 2 0 0 3;
#X connect 3 0 0 4;
#X connect 4 0 0 5;
#X connect 6 0 0 0;
#X connect 6 1 0 1;
#X connect 7 0 0 0;
#X connect 8 0 6 0;
#X restore 561 104 pd interpolate_k;
#X obj 585 50 loadbang;
#N canvas 229 194 546 181 interpolate_k 0;
#X obj 20 76 expr (1.0 / 4.0) * (($f5 - $f6 - $f4 + $f3) * $f1 + $f5
+ $f6 - $f4 - $f3) * $f2 + (1.0 / 4.0) * (($f5 - $f6 + $f4 - $f3) *
$f1 + $f6 + $f5 + $f4 + $f3);
#X obj 203 14 inlet;
#X obj 295 14 inlet;
#X obj 387 13 inlet;
#X obj 479 14 inlet;
#X obj 20 138 outlet;
#X obj 76 40 t b f;
#X obj 20 13 r dmx3;
#X obj 76 13 r dmy3;
#X connect 0 0 5 0;
#X connect 1 0 0 2;
#X connect 2 0 0 3;
#X connect 3 0 0 4;
#X connect 4 0 0 5;
#X connect 6 0 0 0;
#X connect 6 1 0 1;
#X connect 7 0 0 0;
#X connect 8 0 6 0;
#X restore 18 279 pd interpolate_k;
#X obj 42 225 loadbang;
#X msg 100 254 2;
#N canvas 229 194 550 185 interpolate_k 0;
#X obj 20 76 expr (1.0 / 4.0) * (($f5 - $f6 - $f4 + $f3) * $f1 + $f5
+ $f6 - $f4 - $f3) * $f2 + (1.0 / 4.0) * (($f5 - $f6 + $f4 - $f3) *
$f1 + $f6 + $f5 + $f4 + $f3);
#X obj 203 14 inlet;
#X obj 295 14 inlet;
#X obj 387 13 inlet;
#X obj 479 14 inlet;
#X obj 20 138 outlet;
#X obj 76 40 t b f;
#X obj 18 13 r dmx3;
#X obj 76 13 r dmy3;
#X connect 0 0 5 0;
#X connect 1 0 0 2;
#X connect 2 0 0 3;
#X connect 3 0 0 4;
#X connect 4 0 0 5;
#X connect 6 0 0 0;
#X connect 6 1 0 1;
#X connect 7 0 0 0;
#X connect 8 0 6 0;
#X restore 202 278 pd interpolate_k;
#X obj 226 224 loadbang;
#N canvas 229 194 552 187 interpolate_k 0;
#X obj 20 76 expr (1.0 / 4.0) * (($f5 - $f6 - $f4 + $f3) * $f1 + $f5
+ $f6 - $f4 - $f3) * $f2 + (1.0 / 4.0) * (($f5 - $f6 + $f4 - $f3) *
$f1 + $f6 + $f5 + $f4 + $f3);
#X obj 203 14 inlet;
#X obj 295 14 inlet;
#X obj 387 13 inlet;
#X obj 479 14 inlet;
#X obj 20 138 outlet;
#X obj 76 40 t b f;
#X obj 20 13 r dmx3;
#X obj 76 13 r dmy3;
#X connect 0 0 5 0;
#X connect 1 0 0 2;
#X connect 2 0 0 3;
#X connect 3 0 0 4;
#X connect 4 0 0 5;
#X connect 6 0 0 0;
#X connect 6 1 0 1;
#X connect 7 0 0 0;
#X connect 8 0 6 0;
#X restore 387 280 pd interpolate_k;
#X obj 411 226 loadbang;
#X obj 387 305 s dmtsc;
#N canvas 229 194 546 181 interpolate_k 0;
#X obj 20 76 expr (1.0 / 4.0) * (($f5 - $f6 - $f4 + $f3) * $f1 + $f5
+ $f6 - $f4 - $f3) * $f2 + (1.0 / 4.0) * (($f5 - $f6 + $f4 - $f3) *
$f1 + $f6 + $f5 + $f4 + $f3);
#X obj 203 14 inlet;
#X obj 295 14 inlet;
#X obj 387 13 inlet;
#X obj 479 14 inlet;
#X obj 20 138 outlet;
#X obj 76 40 t b f;
#X obj 20 13 r dmx3;
#X obj 76 14 r dmy3;
#X connect 0 0 5 0;
#X connect 1 0 0 2;
#X connect 2 0 0 3;
#X connect 3 0 0 4;
#X connect 4 0 0 5;
#X connect 6 0 0 0;
#X connect 6 1 0 1;
#X connect 7 0 0 0;
#X connect 8 0 6 0;
#X restore 559 278 pd interpolate_k;
#X obj 583 224 loadbang;
#X text 33 62 sad-ang-happy-tend;
#X obj 559 303 s dmssc;
#X text 5 18 light-gentle-expressive-strong;
#X msg 476 79 2;
#X msg 435 79 1;
#X msg 643 79 2;
#X msg 602 79 -1;
#X msg 59 254 1;
#X msg 141 255 2;
#X msg 243 253 0;
#X obj 217 134 s dmk8;
#X obj 394 129 s dmk9;
#X obj 561 129 s dmk13;
#X obj 18 304 s dmk16;
#X obj 202 303 s dmk19;
#X msg 29 84 2;
#X msg 112 84 1;
#X msg 70 84 0.5;
#X msg 157 83 1;
#X msg 217 84 0.5;
#X msg 299 84 0;
#X msg 340 85 0;
#X msg 394 79 1;
#X msg 517 80 2;
#X msg 561 79 -1;
#X msg 684 80 2;
#X msg 18 254 1;
#X msg 203 253 0;
#X msg 284 253 2;
#X msg 325 254 2;
#X msg 388 255 0.7;
#X msg 428 255 1.3;
#X msg 468 255 1.3;
#X msg 510 256 0.7;
#X msg 559 253 -8;
#X msg 600 253 -8;
#X msg 683 254 8;
#X msg 639 253 8;
#X connect 1 0 2 0;
#X connect 1 0 3 0;
#X connect 4 0 44 0;
#X connect 4 0 46 0;
#X connect 4 0 45 0;
#X connect 4 0 47 0;
#X connect 12 0 39 0;
#X connect 13 0 48 0;
#X connect 13 0 14 0;
#X connect 13 0 49 0;
#X connect 13 0 50 0;
#X connect 14 0 12 1;
#X connect 15 0 40 0;
#X connect 16 0 51 0;
#X connect 16 0 33 0;
#X connect 16 0 32 0;
#X connect 16 0 52 0;
#X connect 17 0 41 0;
#X connect 18 0 53 0;
#X connect 18 0 35 0;
#X connect 18 0 34 0;
#X connect 18 0 54 0;
#X connect 19 0 42 0;
#X connect 20 0 55 0;
#X connect 20 0 36 0;
#X connect 20 0 21 0;
#X connect 20 0 37 0;
#X connect 21 0 19 2;
#X connect 22 0 43 0;
#X connect 23 0 56 0;
#X connect 23 0 38 0;
#X connect 23 0 57 0;
#X connect 23 0 58 0;
#X connect 24 0 26 0;
#X connect 25 0 59 0;
#X connect 25 0 60 0;
#X connect 25 0 61 0;
#X connect 25 0 62 0;
#X connect 27 0 30 0;
#X connect 28 0 63 0;
#X connect 28 0 64 0;
#X connect 28 0 66 0;
#X connect 28 0 65 0;
#X connect 32 0 15 2;
#X connect 33 0 15 1;
#X connect 34 0 17 2;
#X connect 35 0 17 1;
#X connect 36 0 19 1;
#X connect 37 0 19 3;
#X connect 38 0 22 1;
#X connect 44 0 1 0;
#X connect 45 0 1 2;
#X connect 46 0 1 1;
#X connect 47 0 1 3;
#X connect 48 0 12 0;
#X connect 49 0 12 2;
#X connect 50 0 12 3;
#X connect 51 0 15 0;
#X connect 52 0 15 3;
#X connect 53 0 17 0;
#X connect 54 0 17 3;
#X connect 55 0 19 0;
#X connect 56 0 22 0;
#X connect 57 0 22 2;
#X connect 58 0 22 3;
#X connect 59 0 24 0;
#X connect 60 0 24 1;
#X connect 61 0 24 2;
#X connect 62 0 24 3;
#X connect 63 0 27 0;
#X connect 64 0 27 1;
#X connect 65 0 27 3;
#X connect 66 0 27 2;
#X restore 459 291 pd kin_energy_interp;
#X connect 3 0 8 0;
#X connect 3 1 9 0;
#X restore 219 143 pd 2D_kinematics_energy_space;
#N canvas 251 214 440 500 2D_musical_mapping_space 0;
#X text 111 156 comment;
#X obj -6 -29 cnv 15 440 500 empty empty empty 20 12 0 14 -233017 -66577
0;
#X obj 10 -13 grid grid1 400 -1 1 400 -1 1 0 0.005 0.005 1 1 117 370
;
#X obj 14 -9 cnv 25 100 25 empty empty Strong 1 13 0 18 -9255 -261681
0;
#X obj 263 -8 cnv 25 75 25 empty empty Expressive 1 13 0 18 -9255 -261681
0;
#X obj 17 359 cnv 25 100 25 empty empty Light 1 13 0 18 -9255 -261681
0;
#X obj 320 356 cnv 25 80 25 empty empty Gentle 1 13 0 18 -9255 -261681
0;
#X obj 11 388 s dmx2;
#X obj 364 387 s dmy2;
#N canvas 0 0 982 412 mus_map_interp 0;
#X text 87 -54 Phrasing;
#N canvas 229 194 546 181 interpolate_k 0;
#X obj 20 76 expr (1.0 / 4.0) * (($f5 - $f6 - $f4 + $f3) * $f1 + $f5
+ $f6 - $f4 - $f3) * $f2 + (1.0 / 4.0) * (($f5 - $f6 + $f4 - $f3) *
$f1 + $f6 + $f5 + $f4 + $f3);
#X obj 203 14 inlet;
#X obj 295 14 inlet;
#X obj 387 13 inlet;
#X obj 479 14 inlet;
#X obj 20 138 outlet;
#X obj 76 40 t b f;
#X obj 20 13 r dmx2;
#X obj 77 13 r dmy2;
#X connect 0 0 5 0;
#X connect 1 0 0 2;
#X connect 2 0 0 3;
#X connect 3 0 0 4;
#X connect 4 0 0 5;
#X connect 6 0 0 0;
#X connect 6 1 0 1;
#X connect 7 0 0 0;
#X connect 8 0 6 0;
#X restore 71 50 pd interpolate_k;
#X obj 71 99 s dmk2;
#X obj 84 75 s dmk3;
#X obj 98 -18 loadbang;
#X text 275 -55 Final ritard;
#X text 443 -57 Punctuation;
#X text 599 -52 Duration contrast;
#X text 77 132 Repetition art;
#X text 242 132 Overall articulation;
#X text 442 132 Tempo scaling;
#X text 652 135 Sound level scaling;
#N canvas 229 194 542 177 interpolate_k 0;
#X obj 20 76 expr (1.0 / 4.0) * (($f5 - $f6 - $f4 + $f3) * $f1 + $f5
+ $f6 - $f4 - $f3) * $f2 + (1.0 / 4.0) * (($f5 - $f6 + $f4 - $f3) *
$f1 + $f6 + $f5 + $f4 + $f3);
#X obj 203 14 inlet;
#X obj 295 14 inlet;
#X obj 387 13 inlet;
#X obj 479 14 inlet;
#X obj 20 138 outlet;
#X obj 76 40 t b f;
#X obj 20 13 r dmx2;
#X obj 76 13 r dmy2;
#X connect 0 0 5 0;
#X connect 1 0 0 2;
#X connect 2 0 0 3;
#X connect 3 0 0 4;
#X connect 4 0 0 5;
#X connect 6 0 0 0;
#X connect 6 1 0 1;
#X connect 7 0 0 0;
#X connect 8 0 6 0;
#X restore 259 50 pd interpolate_k;
#X msg 341 25 0.5;
#X obj 283 -4 loadbang;
#X msg 259 25 0.5;
#X msg 300 25 0;
#N canvas 229 194 548 183 interpolate_k 0;
#X obj 20 76 expr (1.0 / 4.0) * (($f5 - $f6 - $f4 + $f3) * $f1 + $f5
+ $f6 - $f4 - $f3) * $f2 + (1.0 / 4.0) * (($f5 - $f6 + $f4 - $f3) *
$f1 + $f6 + $f5 + $f4 + $f3);
#X obj 203 14 inlet;
#X obj 295 14 inlet;
#X obj 387 13 inlet;
#X obj 479 14 inlet;
#X obj 20 138 outlet;
#X obj 76 40 t b f;
#X obj 20 13 r dmx2;
#X obj 76 13 r dmy2;
#X connect 0 0 5 0;
#X connect 1 0 0 2;
#X connect 2 0 0 3;
#X connect 3 0 0 4;
#X connect 4 0 0 5;
#X connect 6 0 0 0;
#X connect 6 1 0 1;
#X connect 7 0 0 0;
#X connect 8 0 6 0;
#X restore 436 45 pd interpolate_k;
#X obj 460 -9 loadbang;
#N canvas 229 194 542 177 interpolate_k 0;
#X obj 20 76 expr (1.0 / 4.0) * (($f5 - $f6 - $f4 + $f3) * $f1 + $f5
+ $f6 - $f4 - $f3) * $f2 + (1.0 / 4.0) * (($f5 - $f6 + $f4 - $f3) *
$f1 + $f6 + $f5 + $f4 + $f3);
#X obj 203 14 inlet;
#X obj 295 14 inlet;
#X obj 387 13 inlet;
#X obj 479 14 inlet;
#X obj 20 138 outlet;
#X obj 76 40 t b f;
#X obj 20 13 r dmx2;
#X obj 76 13 r dmy2;
#X connect 0 0 5 0;
#X connect 1 0 0 2;
#X connect 2 0 0 3;
#X connect 3 0 0 4;
#X connect 4 0 0 5;
#X connect 6 0 0 0;
#X connect 6 1 0 1;
#X connect 7 0 0 0;
#X connect 8 0 6 0;
#X restore 603 45 pd interpolate_k;
#X obj 627 -9 loadbang;
#N canvas 229 194 542 177 interpolate_k 0;
#X obj 20 76 expr (1.0 / 4.0) * (($f5 - $f6 - $f4 + $f3) * $f1 + $f5
+ $f6 - $f4 - $f3) * $f2 + (1.0 / 4.0) * (($f5 - $f6 + $f4 - $f3) *
$f1 + $f6 + $f5 + $f4 + $f3);
#X obj 203 14 inlet;
#X obj 295 14 inlet;
#X obj 387 13 inlet;
#X obj 479 14 inlet;
#X obj 20 138 outlet;
#X obj 76 40 t b f;
#X obj 20 13 r dmx2;
#X obj 76 13 r dmy2;
#X connect 0 0 5 0;
#X connect 1 0 0 2;
#X connect 2 0 0 3;
#X connect 3 0 0 4;
#X connect 4 0 0 5;
#X connect 6 0 0 0;
#X connect 6 1 0 1;
#X connect 7 0 0 0;
#X connect 8 0 6 0;
#X restore 60 220 pd interpolate_k;
#X obj 84 166 loadbang;
#X msg 142 195 2;
#N canvas 229 194 542 177 interpolate_k 0;
#X obj 20 76 expr (1.0 / 4.0) * (($f5 - $f6 - $f4 + $f3) * $f1 + $f5
+ $f6 - $f4 - $f3) * $f2 + (1.0 / 4.0) * (($f5 - $f6 + $f4 - $f3) *
$f1 + $f6 + $f5 + $f4 + $f3);
#X obj 203 14 inlet;
#X obj 295 14 inlet;
#X obj 387 13 inlet;
#X obj 479 14 inlet;
#X obj 20 138 outlet;
#X obj 76 40 t b f;
#X obj 19 13 r dmx2;
#X obj 76 13 r dmy2;
#X connect 0 0 5 0;
#X connect 1 0 0 2;
#X connect 2 0 0 3;
#X connect 3 0 0 4;
#X connect 4 0 0 5;
#X connect 6 0 0 0;
#X connect 6 1 0 1;
#X connect 7 0 0 0;
#X connect 8 0 6 0;
#X restore 244 219 pd interpolate_k;
#X obj 268 165 loadbang;
#N canvas 229 194 564 199 interpolate_k 0;
#X obj 20 96 expr (1.0 / 4.0) * (($f5 - $f6 - $f4 + $f3) * $f1 + $f5
+ $f6 - $f4 - $f3) * $f2 + (1.0 / 4.0) * (($f5 - $f6 + $f4 - $f3) *
$f1 + $f6 + $f5 + $f4 + $f3);
#X obj 203 14 inlet;
#X obj 295 14 inlet;
#X obj 387 13 inlet;
#X obj 479 14 inlet;
#X obj 20 158 outlet;
#X obj 68 71 t b f;
#X obj 22 12 r dmx2;
#X obj 76 12 r dmy2;
#X obj 76 46 * 1;
#X obj 22 46 * 1;
#X obj 131 13 r dmtsc2;
#X connect 0 0 5 0;
#X connect 1 0 0 2;
#X connect 2 0 0 3;
#X connect 3 0 0 4;
#X connect 4 0 0 5;
#X connect 6 0 0 0;
#X connect 6 1 0 1;
#X connect 7 0 10 0;
#X connect 8 0 9 0;
#X connect 9 0 6 0;
#X connect 10 0 0 0;
#X connect 11 0 9 1;
#X connect 11 0 10 1;
#X restore 429 221 pd interpolate_k;
#X obj 453 167 loadbang;
#N canvas 229 194 575 262 interpolate_k 0;
#X obj 20 141 expr (1.0 / 4.0) * (($f5 - $f6 - $f4 + $f3) * $f1 + $f5
+ $f6 - $f4 - $f3) * $f2 + (1.0 / 4.0) * (($f5 - $f6 + $f4 - $f3) *
$f1 + $f6 + $f5 + $f4 + $f3);
#X obj 203 14 inlet;
#X obj 295 14 inlet;
#X obj 387 13 inlet;
#X obj 479 14 inlet;
#X obj 20 203 outlet;
#X obj 76 105 t b f;
#X obj 20 13 r dmx2;
#X obj 76 14 r dmy2;
#X obj 76 64 * 1;
#X obj 20 63 * 1;
#X obj 130 15 r dmssc2;
#X connect 0 0 5 0;
#X connect 1 0 0 2;
#X connect 2 0 0 3;
#X connect 3 0 0 4;
#X connect 4 0 0 5;
#X connect 6 0 0 0;
#X connect 6 1 0 1;
#X connect 7 0 10 0;
#X connect 8 0 9 0;
#X connect 9 0 6 0;
#X connect 10 0 0 0;
#X connect 11 0 9 1;
#X connect 11 0 10 1;
#X restore 659 221 pd interpolate_k;
#X obj 683 167 loadbang;
#X text 75 3 sad-ang-happy-tend;
#X obj 659 246 s dmssc;
#X msg 382 26 0.5;
#X msg 510 196 1.1;
#X text 47 -41 light-gentle-expressive-strong;
#X msg 153 25 2.5;
#X msg 199 24 -0.5;
#X msg 112 25 2;
#X msg 71 25 0.5;
#X msg 518 20 2;
#X msg 477 20 1;
#X msg 436 20 2;
#X msg 559 21 1.5;
#X msg 685 20 2;
#X msg 603 20 1;
#X msg 644 20 -1;
#X msg 726 21 3;
#X msg 60 195 2;
#X msg 101 195 1;
#X msg 183 196 2;
#X msg 245 194 3;
#X msg 285 194 0;
#X msg 326 194 0;
#X msg 367 195 1;
#X msg 430 196 1;
#X msg 470 196 0.8;
#X msg 552 197 1.2;
#X msg 659 196 -7;
#X msg 700 196 -7;
#X msg 740 196 3;
#X msg 782 197 7;
#X obj 259 75 s dmk8;
#X obj 436 70 s dmk9;
#X obj 603 70 s dmk13;
#X obj 60 245 s dmk16;
#X obj 244 244 s dmk19;
#X obj 429 249 s dmtsc;
#X msg 596 197 1;
#X obj 573 273 s dmtsc2;
#X obj 593 243 s dmssc2;
#X connect 1 0 2 0;
#X connect 1 0 3 0;
#X connect 4 0 38 0;
#X connect 4 0 37 0;
#X connect 4 0 35 0;
#X connect 4 0 36 0;
#X connect 12 0 61 0;
#X connect 13 0 12 2;
#X connect 14 0 15 0;
#X connect 14 0 16 0;
#X connect 14 0 13 0;
#X connect 14 0 32 0;
#X connect 15 0 12 0;
#X connect 16 0 12 1;
#X connect 17 0 62 0;
#X connect 18 0 41 0;
#X connect 18 0 40 0;
#X connect 18 0 39 0;
#X connect 18 0 42 0;
#X connect 19 0 63 0;
#X connect 20 0 44 0;
#X connect 20 0 45 0;
#X connect 20 0 43 0;
#X connect 20 0 46 0;
#X connect 21 0 64 0;
#X connect 22 0 47 0;
#X connect 22 0 48 0;
#X connect 22 0 23 0;
#X connect 22 0 49 0;
#X connect 23 0 21 2;
#X connect 24 0 65 0;
#X connect 25 0 50 0;
#X connect 25 0 51 0;
#X connect 25 0 52 0;
#X connect 25 0 53 0;
#X connect 26 0 66 0;
#X connect 27 0 54 0;
#X connect 27 0 55 0;
#X connect 27 0 33 0;
#X connect 27 0 56 0;
#X connect 28 0 31 0;
#X connect 29 0 57 0;
#X connect 29 0 58 0;
#X connect 29 0 59 0;
#X connect 29 0 60 0;
#X connect 29 0 67 0;
#X connect 32 0 12 3;
#X connect 33 0 26 2;
#X connect 35 0 1 2;
#X connect 36 0 1 3;
#X connect 37 0 1 1;
#X connect 38 0 1 0;
#X connect 39 0 17 2;
#X connect 40 0 17 1;
#X connect 41 0 17 0;
#X connect 42 0 17 3;
#X connect 43 0 19 2;
#X connect 44 0 19 0;
#X connect 45 0 19 1;
#X connect 46 0 19 3;
#X connect 47 0 21 0;
#X connect 48 0 21 1;
#X connect 49 0 21 3;
#X connect 50 0 24 0;
#X connect 51 0 24 1;
#X connect 52 0 24 2;
#X connect 53 0 24 3;
#X connect 54 0 26 0;
#X connect 55 0 26 1;
#X connect 56 0 26 3;
#X connect 57 0 28 0;
#X connect 58 0 28 1;
#X connect 59 0 28 2;
#X connect 60 0 28 3;
#X connect 67 0 69 0;
#X connect 67 0 68 0;
#X restore 288 410 pd mus_map_interp;
#X text 79 391 Control scaling;
#X obj 95 415 hsl 128 20 0 2 0 0 dmtsc2 dmtsc2 empty -2 -6 0 8 -261681
-1 -1 6350 1;
#X obj 44 415 nbx 4 20 -1e+037 1e+037 0 0 dmtsc2 dmtsc2 empty 0 -6
0 10 -261681 -1 -1 1 256;
#X obj 95 435 hsl 128 20 0 2 0 0 dmssc2 dmssc2 empty -2 -6 0 8 -262131
-1 -1 6350 1;
#X obj 44 435 nbx 4 20 -1e+037 1e+037 0 0 dmssc2 dmssc2 empty 0 -6
0 10 -262131 -1 -1 1 256;
#X text 229 416 Tempo;
#X text 228 435 Sound level;
#X connect 2 0 7 0;
#X connect 2 1 8 0;
#X restore 219 116 pd 2D_musical_mapping_space;
#X obj 442 33 cnv 15 210 145 empty empty Dynamics_mapping 10 10 0 18
-228856 -4160 0;
#N canvas 208 119 544 357 select-synth 0;
#X obj 146 15 inlet;
#X msg 146 73 symbol SBlive;
#X msg 147 105 symbol Roland-1010;
#X msg 147 134 symbol Roland-1010-OrchII;
#X msg 147 161 symbol Roland-A90;
#X msg 148 191 symbol Roland-PMA5;
#X obj 86 254 s pdm_synth;
#X obj 146 44 select 0 1 2 3 4 5;
#X msg 149 222 symbol Kontakt-2;
#X connect 0 0 7 0;
#X connect 1 0 6 0;
#X connect 2 0 6 0;
#X connect 3 0 6 0;
#X connect 4 0 6 0;
#X connect 5 0 6 0;
#X connect 7 0 1 0;
#X connect 7 1 2 0;
#X connect 7 2 3 0;
#X connect 7 3 4 0;
#X connect 7 4 5 0;
#X connect 7 5 8 0;
#X connect 8 0 6 0;
#X restore 473 149 pd select-synth;
#X obj 473 58 vradio 15 1 0 6 empty empty empty 0 -6 0 8 -191407 -1
-1 0;
#X text 492 55 SBlive;
#X text 491 71 Roland-1010;
#X text 492 86 Roland-1010-OrchII;
#X text 492 132 Kontakt-2;
#X text 493 102 Roland-A90;
#X text 492 117 Roland-PMA5;
#X obj -28 -1 cnv 15 680 27 empty empty pDM_expressive_sequencer 10
14 0 20 -261549 -16662 0;
#N canvas 0 0 594 319 auxillary_stuff 0;
#X text 212 181 Simple happy \, sad \, angry mapping;
#N canvas 128 93 718 324 gesture_data_input_emotion 0;
#X floatatom 49 -175 5 0 0 0 - - -;
#X floatatom 180 -177 5 0 0 0 - - -;
#X floatatom 307 -179 5 0 0 0 - - -;
#X obj 49 -198 OSCroute /angry;
#X obj 180 -199 OSCroute /happy;
#X obj 308 -200 OSCroute /sad;
#X obj 48 -143 s dmea;
#X obj 179 -143 s dmeh;
#X obj 308 -146 s dmes;
#X obj 155 -265 dumpOSC 10002;
#X connect 0 0 6 0;
#X connect 1 0 7 0;
#X connect 2 0 8 0;
#X connect 3 0 0 0;
#X connect 4 0 1 0;
#X connect 5 0 2 0;
#X connect 9 0 3 0;
#X connect 9 0 4 0;
#X connect 9 0 5 0;
#X restore 25 211 pd gesture_data_input_emotion;
#N canvas 465 296 721 192 pdm_emotion_mapping 0;
#X obj 63 32 vsl 20 128 0 1 0 0 dmea dmea Angry -10 -12 0 12 -258699
-143491 -1 0 1;
#X obj 185 32 vsl 20 128 0 1 0 0 dmes dmes Sad -5 -12 0 12 -366 -233017
-1 0 1;
#X obj 124 32 vsl 20 128 0 1 0 0 dmeh dmeh Happy -10 -12 0 12 -241291
-1 -1 0 1;
#X obj 54 282 plus 0 0 0;
#X obj 54 332 s dmk2;
#X obj 67 308 s dmk3;
#X obj 16 226 * -1.5;
#X obj 72 227 * 0.5;
#X obj 126 227 * 1.5;
#X obj 126 253 t b f;
#X obj 16 200 r dmea;
#X obj 72 200 r dmeh;
#X obj 126 201 r dmes;
#X obj 233 286 plus 0 0 0;
#X obj 251 231 * 0.5;
#X obj 305 257 t b f;
#X obj 195 204 r dmea;
#X obj 251 204 r dmeh;
#X obj 305 205 r dmes;
#X obj 195 230 * 0;
#X obj 305 231 * 0.5;
#X obj 406 287 plus 0 0 0;
#X obj 478 258 t b f;
#X obj 368 205 r dmea;
#X obj 424 205 r dmeh;
#X obj 478 206 r dmes;
#X obj 478 232 * 1;
#X obj 424 232 * 1.6;
#X obj 368 231 * 1.4;
#X obj 577 286 plus 0 0 0;
#X obj 649 257 t b f;
#X obj 539 204 r dmea;
#X obj 595 204 r dmeh;
#X obj 649 205 r dmes;
#X obj 539 230 * 2.5;
#X obj 595 231 * 1.5;
#X obj 649 231 * -2;
#X obj 55 468 plus 0 0 0;
#X obj 127 439 t b f;
#X obj 17 386 r dmea;
#X obj 73 386 r dmeh;
#X obj 127 387 r dmes;
#X obj 73 413 * 2;
#X obj 17 412 * 1.5;
#X obj 127 413 * 0.8;
#X obj 230 468 plus 0 0 0;
#X obj 302 439 t b f;
#X obj 192 386 r dmea;
#X obj 248 386 r dmeh;
#X obj 302 387 r dmes;
#X obj 248 413 * 2;
#X obj 192 412 * 1;
#X obj 302 413 * 0;
#X obj 402 468 plus 0 0 0;
#X obj 474 439 t b f;
#X obj 364 386 r dmea;
#X obj 420 386 r dmeh;
#X obj 474 387 r dmes;
#X obj 402 525 s dmtsc;
#X obj 420 413 * 0.3;
#X obj 474 413 * -0.3;
#X obj 402 498 + 1;
#X obj 579 473 plus 0 0 0;
#X obj 651 444 t b f;
#X obj 541 391 r dmea;
#X obj 597 391 r dmeh;
#X obj 651 392 r dmes;
#X obj 542 417 * 6;
#X obj 597 418 * 3;
#X obj 651 418 * -4;
#X obj 579 499 s dmssc;
#X obj 364 412 * 0.5;
#X text 63 176 Phrasing;
#X text 236 180 Final ritard;
#X text 404 178 Punctuation;
#X text 557 175 Duration contrast;
#X text 34 358 Repetition art;
#X text 199 358 Overall articulation;
#X text 373 358 Tempo scaling;
#X text 551 359 Sound level scaling;
#X text 245 34 This is a basic mapping from emotion to rule quantities.
Use one slider at a time. The k values from each emotion are added
for each rule. Thus \, "strange" results are obtained for some rules
when the k values are added. Mapping code below.;
#X obj 233 312 s dmk8;
#X obj 406 313 s dmk9;
#X obj 578 312 s dmk13;
#X obj 55 494 s dmk16;
#X obj 230 494 s dmk19;
#X connect 3 0 4 0;
#X connect 3 0 5 0;
#X connect 6 0 3 0;
#X connect 7 0 3 1;
#X connect 8 0 9 0;
#X connect 9 0 3 0;
#X connect 9 1 3 2;
#X connect 10 0 6 0;
#X connect 11 0 7 0;
#X connect 12 0 8 0;
#X connect 13 0 81 0;
#X connect 14 0 13 1;
#X connect 15 0 13 0;
#X connect 15 1 13 2;
#X connect 16 0 19 0;
#X connect 17 0 14 0;
#X connect 18 0 20 0;
#X connect 19 0 13 0;
#X connect 20 0 15 0;
#X connect 21 0 82 0;
#X connect 22 0 21 0;
#X connect 22 1 21 2;
#X connect 23 0 28 0;
#X connect 24 0 27 0;
#X connect 25 0 26 0;
#X connect 26 0 22 0;
#X connect 27 0 21 1;
#X connect 28 0 21 0;
#X connect 29 0 83 0;
#X connect 30 0 29 0;
#X connect 30 1 29 2;
#X connect 31 0 34 0;
#X connect 32 0 35 0;
#X connect 33 0 36 0;
#X connect 34 0 29 0;
#X connect 35 0 29 1;
#X connect 36 0 30 0;
#X connect 37 0 84 0;
#X connect 38 0 37 0;
#X connect 38 1 37 2;
#X connect 39 0 43 0;
#X connect 40 0 42 0;
#X connect 41 0 44 0;
#X connect 42 0 37 1;
#X connect 43 0 37 0;
#X connect 44 0 38 0;
#X connect 45 0 85 0;
#X connect 46 0 45 0;
#X connect 46 1 45 2;
#X connect 47 0 51 0;
#X connect 48 0 50 0;
#X connect 49 0 52 0;
#X connect 50 0 45 1;
#X connect 51 0 45 0;
#X connect 52 0 46 0;
#X connect 53 0 61 0;
#X connect 54 0 53 0;
#X connect 54 1 53 2;
#X connect 55 0 71 0;
#X connect 56 0 59 0;
#X connect 57 0 60 0;
#X connect 59 0 53 1;
#X connect 60 0 54 0;
#X connect 61 0 58 0;
#X connect 62 0 70 0;
#X connect 63 0 62 0;
#X connect 63 1 62 2;
#X connect 64 0 67 0;
#X connect 65 0 68 0;
#X connect 66 0 69 0;
#X connect 67 0 62 0;
#X connect 68 0 62 1;
#X connect 69 0 63 0;
#X connect 71 0 53 0;
#X restore 25 180 pd pdm_emotion_mapping;
#N canvas 186 35 697 723 midi_input 0;
#X obj 114 49 bng 20 250 50 0 empty empty empty 0 -6 0 8 -262144 -1
-1;
#X floatatom 114 117 6 0 0 0 - - -;
#X floatatom 39 270 5 0 0 0 - - -;
#X floatatom 15 321 5 0 0 0 - - -;
#X floatatom 52 244 5 0 0 0 - - -;
#X floatatom 27 295 5 0 0 0 - - -;
#X floatatom 89 168 6 0 0 0 - - -;
#X floatatom 64 218 5 0 0 0 - - -;
#X floatatom 101 142 5 0 0 0 - - -;
#X floatatom 76 193 5 0 0 0 - - -;
#X text 92 271 number of voices currently playing;
#X text 109 241 pitch;
#X text 116 218 velocity;
#X text 80 296 voice allocation number - each note playing is assigned
a no;
#X text 109 19 borax :: analyse incoming midi notes;
#X obj 17 21 notein 1;
#X text 175 119 delta time value - time between note-ons;
#X text 149 169 duration value - time between note-on and note-off
;
#X text 68 321 note-on count;
#X text 130 193 duration count;
#X text 153 145 delta time count;
#X text 142 47 <-- reset :: sets counters and clocks to zero and sends
;
#X text 247 62 note-off for all notes currently playing;
#X text 126 92 <--- zeroes only added to make the object larger;
#X floatatom 238 373 5 0 0 0 - - -;
#X floatatom 297 372 5 0 0 0 - - -;
#X obj 238 347 moses 80;
#X floatatom 63 384 5 0 0 0 - - -;
#X obj 64 352 moses 1;
#X obj 113 474 - 1;
#X obj 112 500 nbx 5 14 -1e+037 1e+037 0 0 dmy3 empty empty 0 -6 0
10 -261681 -1 -1 0 256;
#X obj 113 519 vsl 15 128 -1 1 0 0 empty empty empty 0 -8 0 8 -262144
-1 -1 0 1;
#X obj 303 501 nbx 5 14 -1e+037 1e+037 0 0 dmx3 empty empty 0 -6 0
10 -225280 -1 -1 0 256;
#X obj 305 522 vsl 15 128 -1 1 0 0 empty empty empty 0 -8 0 8 -262144
-1 -1 0 1;
#X obj 302 448 /;
#X obj 297 395 t f b;
#X obj 303 474 - 1;
#X msg 332 422 200;
#X text 327 513 X pos (-1 to 1);
#X text 137 518 Y pos (-1 to 1);
#X obj 114 449 / 63;
#X obj 15 87 maxlib/borax 0 0 0 0;
#X connect 7 0 28 0;
#X connect 25 0 35 0;
#X connect 26 0 24 0;
#X connect 26 1 25 0;
#X connect 28 1 27 0;
#X connect 28 1 40 0;
#X connect 29 0 30 0;
#X connect 29 0 31 0;
#X connect 32 0 33 0;
#X connect 34 0 36 0;
#X connect 35 0 34 1;
#X connect 35 1 37 0;
#X connect 36 0 32 0;
#X connect 37 0 34 0;
#X connect 40 0 29 0;
#X restore 25 151 pd midi_input;
#X text 143 149 MIDI expressive input controlling Kinematics-Energy
space;
#N canvas 0 90 1138 648 pdm_basic_control 0;
#X obj 43 171 vsl 20 256 0.5 2 0 0 empty empty Tempo -10 -12 0 12 -262144
-1 -1 8500 1;
#X obj 258 174 vsl 20 256 0 2 0 0 empty empty Articulation -5 -12 0
12 -262144 -1 -1 0 1;
#X obj 145 173 vsl 20 256 -10 10 0 0 empty empty Dynamics -10 -12 0
12 -262144 -1 -1 12750 1;
#X obj 44 451 s dmtsc;
#X obj 145 455 s dmssc;
#X obj 258 459 s dmk9;
#X obj 258 515 s dmk19;
#X obj 259 489 s dmk16;
#X obj 398 176 vsl 20 256 -3 3 0 0 empty empty Phrasing -5 -12 0 12
-262144 -1 -1 12750 1;
#X obj 398 464 s dmk2;
#X obj 398 489 s dmk3;
#X text 52 565 Sliders for setting basic performance categories. Used
for production test;
#X obj 513 178 vsl 20 256 -5 5 0 0 empty empty Dur_contr -5 -12 0 12
-262144 -1 -1 12750 1;
#X obj 513 457 s dmk13;
#X obj 746 178 vsl 20 256 -24 24 0 0 empty empty Transpose -5 -12 0
12 -262144 -1 -1 12750 1;
#X obj 746 457 s pdm_transp;
#X obj 870 178 vsl 20 256 -20 0 0 0 empty empty Timbre -5 -12 0 12
-262144 -1 -1 25500 1;
#X obj 976 178 vsl 20 256 3 100 0 0 empty empty Attack -5 -12 0 12
-262144 -1 -1 0 1;
#X obj 976 457 s as_attack;
#X obj 870 457 s as_timbre;
#X obj 43 68 loadbang;
#X msg 43 94 1;
#X obj 145 69 loadbang;
#X obj 258 70 loadbang;
#X obj 398 72 loadbang;
#X obj 513 76 loadbang;
#X obj 746 76 loadbang;
#X obj 870 79 loadbang;
#X obj 976 83 loadbang;
#X msg 145 95 0;
#X msg 258 96 0;
#X msg 746 102 0;
#X msg 870 105 0;
#X msg 976 109 3;
#X msg 398 98 0;
#X msg 513 102 0;
#X connect 0 0 3 0;
#X connect 1 0 5 0;
#X connect 1 0 7 0;
#X connect 1 0 6 0;
#X connect 2 0 4 0;
#X connect 8 0 9 0;
#X connect 8 0 10 0;
#X connect 12 0 13 0;
#X connect 14 0 15 0;
#X connect 16 0 19 0;
#X connect 17 0 18 0;
#X connect 20 0 21 0;
#X connect 21 0 0 0;
#X connect 22 0 29 0;
#X connect 23 0 30 0;
#X connect 24 0 34 0;
#X connect 25 0 35 0;
#X connect 26 0 31 0;
#X connect 27 0 32 0;
#X connect 28 0 33 0;
#X connect 29 0 2 0;
#X connect 30 0 1 0;
#X connect 31 0 14 0;
#X connect 32 0 16 0;
#X connect 33 0 17 0;
#X connect 34 0 8 0;
#X connect 35 0 12 0;
#X restore 27 241 pd pdm_basic_control;
#X text 23 125 some testing stuff:;
#N canvas 65 69 961 564 gesture_data_input_simple2D 0;
#X obj 334 -337 dumpOSC 10011;
#X obj 358 -85 OSCroute /QM_LEFT;
#X obj 362 -216 OSCroute /QM_RIGHT;
#X floatatom 358 -62 5 0 0 0 - - -;
#X floatatom 362 -194 5 0 0 0 - - -;
#X floatatom 359 -108 5 0 0 0 - - -;
#X obj 359 -130 OSCroute /YPOS_LEFT;
#X floatatom 360 -151 5 0 0 0 - - -;
#X obj 361 -173 OSCroute /YPOS_RIGHT;
#X floatatom 362 -280 5 0 0 0 - - -;
#X floatatom 362 -236 5 0 0 0 - - -;
#X obj 362 -301 OSCroute /QM_TOP;
#X obj 363 -257 OSCroute /XPOS_TOP;
#X floatatom 36 -267 5 0 0 0 - - -;
#X obj 36 -292 OSCroute /QM;
#X floatatom 197 -233 5 0 0 0 - - -;
#X obj 197 -258 OSCroute /YPOS_ALL;
#X obj 197 -213 * 2;
#X obj 197 -190 - 1;
#X obj 36 -203 * 2;
#X obj 36 -178 - 1;
#X obj 44 -130 nbx 5 14 -1e+037 1e+037 0 0 dmex1 empty empty 0 -6 0
10 -261681 -1 -1 0 256;
#X obj 204 -135 nbx 5 14 -1e+037 1e+037 0 0 dmey1 empty empty 0 -6
0 10 -225280 -1 -1 0 256;
#X obj 36 -108 vsl 15 128 -1 1 0 0 empty empty empty 0 -8 0 8 -262144
-1 -1 0 1;
#X text 218 -112 Y pos (-1 to 1);
#X floatatom 36 -223 5 0 0 0 - - -;
#N canvas 245 136 749 661 peak_decay_filter 0;
#X floatatom 65 -93 5 0 0 0 - - -;
#X obj 128 7 f;
#X floatatom 132 64 5 0 0 0 - - -;
#X obj 66 8 moses;
#X msg 128 -24 bang;
#X obj 67 -135 inlet;
#X obj 198 -132 inlet;
#X obj 134 179 outlet;
#X text 249 -130 decay value;
#X obj 131 95 moses 0;
#X msg 131 137 0;
#X obj 181 8 - 0.1;
#X connect 0 0 3 0;
#X connect 1 0 2 0;
#X connect 1 0 3 1;
#X connect 1 0 11 0;
#X connect 2 0 9 0;
#X connect 3 0 4 0;
#X connect 3 1 1 0;
#X connect 4 0 1 0;
#X connect 5 0 0 0;
#X connect 6 0 11 1;
#X connect 9 0 10 0;
#X connect 9 1 7 0;
#X connect 10 0 7 0;
#X connect 11 0 1 1;
#X restore 36 -246 pd peak_decay_filter;
#X text 55 -114 QM X pos (-1 to 1);
#X obj 197 -108 vsl 15 128 -1 1 0 0 empty empty empty 0 -8 0 8 -262144
-1 -1 0 1;
#N canvas 229 194 550 185 interpolate_k 0;
#X obj 20 76 expr (1.0 / 4.0) * (($f5 - $f6 - $f4 + $f3) * $f1 + $f5
+ $f6 - $f4 - $f3) * $f2 + (1.0 / 4.0) * (($f5 - $f6 + $f4 - $f3) *
$f1 + $f6 + $f5 + $f4 + $f3);
#X obj 203 14 inlet;
#X obj 295 14 inlet;
#X obj 387 13 inlet;
#X obj 479 14 inlet;
#X obj 20 138 outlet;
#X obj 76 40 t b f;
#X obj 20 13 r dmvx;
#X obj 76 13 r dmvy;
#X connect 0 0 5 0;
#X connect 1 0 0 2;
#X connect 2 0 0 3;
#X connect 3 0 0 4;
#X connect 4 0 0 5;
#X connect 6 0 0 0;
#X connect 6 1 0 1;
#X connect 7 0 0 0;
#X connect 8 0 6 0;
#X restore 562 -244 pd interpolate_k;
#X obj 589 -312 loadbang;
#X text 566 -291 sad-ang-happy-tend;
#X floatatom 572 -219 5 0 0 0 - - -;
#X msg 562 -269 255;
#X msg 598 -269 0;
#X msg 634 -269 54;
#X msg 671 -269 137;
#X obj 571 -138 loadbang;
#X floatatom 608 -15 5 0 0 0 - - -;
#X floatatom 562 -15 5 0 0 0 - - -;
#X obj 562 -39 sendOSC;
#X msg 592 -64 disconnect;
#X msg 581 -88 typetags 0;
#N canvas 0 0 452 302 block_equal 0;
#X obj 165 3 inlet;
#X obj 171 151 !=;
#X obj 185 89 f;
#X floatatom 104 94 5 0 0 0 - - -;
#X floatatom 193 111 5 0 0 0 - - -;
#X floatatom 165 45 5 0 0 0 - - -;
#X obj 142 197 f;
#X floatatom 142 221 5 0 0 0 - - -;
#X obj 102 247 bng 15 250 50 0 empty empty empty 0 -6 0 8 -262144 -1
-1;
#X obj 141 24 bng 15 250 50 0 empty empty empty 0 -6 0 8 -262144 -1
-1;
#X obj 165 66 t f f b;
#X obj 130 120 t f f;
#X obj 171 174 sel 1;
#X obj 142 255 outlet;
#X connect 0 0 5 0;
#X connect 1 0 12 0;
#X connect 2 0 4 0;
#X connect 2 0 1 1;
#X connect 5 0 10 0;
#X connect 6 0 7 0;
#X connect 7 0 13 0;
#X connect 7 0 8 0;
#X connect 9 0 5 0;
#X connect 10 0 3 0;
#X connect 10 0 11 0;
#X connect 10 1 2 1;
#X connect 10 2 2 0;
#X connect 11 0 1 0;
#X connect 11 1 6 1;
#X connect 12 0 6 0;
#X restore 562 -196 pd block_equal;
#X msg 571 -112 connect localhost 10012;
#X msg 562 -169 send /HUE \$1;
#X text 505 -337 HUE interpolator using activity-valence sent back
to eyesweb;
#X obj 5 81 sig~;
#X obj 14 135 print trigger;
#X obj 221 136 print rest;
#X obj 6 159 s pdm_play;
#X obj 213 160 s pdm_stop;
#X floatatom 5 58 5 0 0 0 - - -;
#X obj 421 142 print trigger;
#X obj 546 146 print rest;
#X obj 412 170 s pdm_play;
#X obj 546 170 s pdm_stop;
#X obj 6 109 threshold~ 0.3 1000 0.001 1000;
#X floatatom 393 87 5 0 0 0 - - -;
#X obj 5 35 mavg 30;
#X obj 392 110 smlib/threshold 0.3 0 0.001 0;
#X obj 44 -153 * 1;
#X obj 204 -162 * 1;
#X floatatom 105 -184 5 0 0 0 - - -;
#X obj 106 -149 s dmvx;
#X obj 243 -162 s dmvy;
#X text 79 -203 overall scaling;
#X connect 0 0 1 0;
#X connect 0 0 2 0;
#X connect 0 0 6 0;
#X connect 0 0 8 0;
#X connect 0 0 11 0;
#X connect 0 0 12 0;
#X connect 0 0 16 0;
#X connect 0 0 14 0;
#X connect 1 0 3 0;
#X connect 2 0 4 0;
#X connect 6 0 5 0;
#X connect 8 0 7 0;
#X connect 11 0 9 0;
#X connect 12 0 10 0;
#X connect 13 0 26 0;
#X connect 13 0 59 0;
#X connect 14 0 13 0;
#X connect 15 0 17 0;
#X connect 16 0 15 0;
#X connect 17 0 18 0;
#X connect 18 0 28 0;
#X connect 18 0 62 0;
#X connect 18 0 65 0;
#X connect 19 0 20 0;
#X connect 20 0 23 0;
#X connect 20 0 61 0;
#X connect 20 0 64 0;
#X connect 25 0 19 0;
#X connect 26 0 25 0;
#X connect 29 0 32 0;
#X connect 29 0 43 0;
#X connect 30 0 33 0;
#X connect 30 0 34 0;
#X connect 30 0 35 0;
#X connect 30 0 36 0;
#X connect 33 0 29 0;
#X connect 34 0 29 1;
#X connect 35 0 29 2;
#X connect 36 0 29 3;
#X connect 37 0 44 0;
#X connect 40 0 39 0;
#X connect 40 1 38 0;
#X connect 41 0 40 0;
#X connect 42 0 40 0;
#X connect 43 0 45 0;
#X connect 44 0 40 0;
#X connect 44 0 42 0;
#X connect 45 0 40 0;
#X connect 47 0 57 0;
#X connect 52 0 47 0;
#X connect 57 0 48 0;
#X connect 57 0 50 0;
#X connect 57 1 49 0;
#X connect 57 1 51 0;
#X connect 58 0 60 0;
#X connect 59 0 52 0;
#X connect 60 0 53 0;
#X connect 60 0 55 0;
#X connect 60 1 54 0;
#X connect 60 1 56 0;
#X connect 61 0 21 0;
#X connect 62 0 22 0;
#X connect 63 0 61 1;
#X connect 63 0 62 1;
#X restore 23 46 pd gesture_data_input_simple2D;
#X text 245 46 EW file: home_conductor_simple2D;
#X text 23 24 This is used together with an EyesWeb patch:;
#X restore 519 2 pd auxillary_stuff;
#N canvas 187 162 459 192 pdm_readme 0;
#X text 13 21 pDM is a midi score player with real time expressive
control using the KTH performance rules. The score is preprocessed
in the program Director Musices. More info in the readme file. (C)
2004-2008 Anders Friberg \, KTH \, Stockholm \, afriberg@csc.kth.se
;
#X text 14 111 pDM is licensed under the terms of the GNU General Public
License (GNU GPL) \, see the accompaning file copying.txt;
#X restore 284 3 pd pdm_readme;
#N canvas 1651 469 777 518 2D_activity_valence_space 1;
#X obj 1 -30 cnv 15 430 510 empty empty empty 20 12 0 14 -233017 -66577
0;
#X obj 14 1 grid grid1 400 -1 1 400 -1 1 0 0.005 0.005 1 1 14 402;
#X obj 14 403 s dmex1;
#X obj 360 403 s dmey1;
#X obj 16 6 cnv 25 100 25 empty empty Tender 1 13 0 18 -9255 -261681
0;
#X obj 336 5 cnv 25 75 25 empty empty Happy 1 13 0 18 -9255 -261681
0;
#X obj 17 373 cnv 25 100 25 empty empty Sad 1 13 0 18 -9255 -261681
0;
#X obj 334 370 cnv 25 80 25 empty empty Angry 1 13 0 18 -9255 -261681
0;
#X obj 130 -29 cnv 25 60 25 empty empty Activity-Valence 1 13 0 18
-228856 -355 0;
#N canvas 0 0 840 518 act_val_interp 0;
#X text 44 -58 Phrasing;
#N canvas 229 194 560 195 interpolate_k 0;
#X obj 20 76 expr (1.0 / 4.0) * (($f5 - $f6 - $f4 + $f3) * $f1 + $f5
+ $f6 - $f4 - $f3) * $f2 + (1.0 / 4.0) * (($f5 - $f6 + $f4 - $f3) *
$f1 + $f6 + $f5 + $f4 + $f3);
#X obj 203 14 inlet;
#X obj 295 14 inlet;
#X obj 387 13 inlet;
#X obj 479 14 inlet;
#X obj 20 138 outlet;
#X obj 76 40 t b f;
#X obj 20 13 r dmex1;
#X obj 76 13 r dmey1;
#X connect 0 0 5 0;
#X connect 1 0 0 2;
#X connect 2 0 0 3;
#X connect 3 0 0 4;
#X connect 4 0 0 5;
#X connect 6 0 0 0;
#X connect 6 1 0 1;
#X connect 7 0 0 0;
#X connect 8 0 6 0;
#X restore 28 46 pd interpolate_k;
#X obj 28 95 s dmk2;
#X obj 41 71 s dmk3;
#X obj 55 -22 loadbang;
#X text 232 -59 Final ritard;
#X text 400 -61 Punctuation;
#X text 556 -56 Duration contrast;
#X text 34 128 Repetition art;
#X text 199 128 Overall articulation;
#X text 399 128 Tempo scaling;
#X text 637 129 Sound level scaling;
#N canvas 229 194 542 177 interpolate_k 0;
#X obj 20 76 expr (1.0 / 4.0) * (($f5 - $f6 - $f4 + $f3) * $f1 + $f5
+ $f6 - $f4 - $f3) * $f2 + (1.0 / 4.0) * (($f5 - $f6 + $f4 - $f3) *
$f1 + $f6 + $f5 + $f4 + $f3);
#X obj 203 14 inlet;
#X obj 295 14 inlet;
#X obj 387 13 inlet;
#X obj 479 14 inlet;
#X obj 20 138 outlet;
#X obj 76 40 t b f;
#X obj 21 13 r dmex1;
#X obj 76 14 r dmey1;
#X connect 0 0 5 0;
#X connect 1 0 0 2;
#X connect 2 0 0 3;
#X connect 3 0 0 4;
#X connect 4 0 0 5;
#X connect 6 0 0 0;
#X connect 6 1 0 1;
#X connect 7 0 0 0;
#X connect 8 0 6 0;
#X restore 216 46 pd interpolate_k;
#X msg 298 21 0.5;
#X obj 240 -8 loadbang;
#X msg 216 21 0.5;
#X msg 257 21 0;
#N canvas 229 194 538 173 interpolate_k 0;
#X obj 20 76 expr (1.0 / 4.0) * (($f5 - $f6 - $f4 + $f3) * $f1 + $f5
+ $f6 - $f4 - $f3) * $f2 + (1.0 / 4.0) * (($f5 - $f6 + $f4 - $f3) *
$f1 + $f6 + $f5 + $f4 + $f3);
#X obj 203 14 inlet;
#X obj 295 14 inlet;
#X obj 387 13 inlet;
#X obj 479 14 inlet;
#X obj 20 138 outlet;
#X obj 76 40 t b f;
#X obj 20 13 r dmex1;
#X obj 76 13 r dmey1;
#X connect 0 0 5 0;
#X connect 1 0 0 2;
#X connect 2 0 0 3;
#X connect 3 0 0 4;
#X connect 4 0 0 5;
#X connect 6 0 0 0;
#X connect 6 1 0 1;
#X connect 7 0 0 0;
#X connect 8 0 6 0;
#X restore 393 41 pd interpolate_k;
#X obj 417 -13 loadbang;
#X msg 434 16 1.4;
#X msg 516 17 1.2;
#N canvas 229 194 536 171 interpolate_k 0;
#X obj 20 76 expr (1.0 / 4.0) * (($f5 - $f6 - $f4 + $f3) * $f1 + $f5
+ $f6 - $f4 - $f3) * $f2 + (1.0 / 4.0) * (($f5 - $f6 + $f4 - $f3) *
$f1 + $f6 + $f5 + $f4 + $f3);
#X obj 203 14 inlet;
#X obj 295 14 inlet;
#X obj 387 13 inlet;
#X obj 479 14 inlet;
#X obj 20 138 outlet;
#X obj 76 40 t b f;
#X obj 20 13 r dmex1;
#X obj 76 13 r dmey1;
#X connect 0 0 5 0;
#X connect 1 0 0 2;
#X connect 2 0 0 3;
#X connect 3 0 0 4;
#X connect 4 0 0 5;
#X connect 6 0 0 0;
#X connect 6 1 0 1;
#X connect 7 0 0 0;
#X connect 8 0 6 0;
#X restore 560 41 pd interpolate_k;
#X obj 584 -13 loadbang;
#X msg 601 16 2.5;
#X msg 393 16 1;
#X msg 642 16 1.5;
#X msg 683 17 0;
#X msg 560 16 -2;
#N canvas 229 194 540 175 interpolate_k 0;
#X obj 20 76 expr (1.0 / 4.0) * (($f5 - $f6 - $f4 + $f3) * $f1 + $f5
+ $f6 - $f4 - $f3) * $f2 + (1.0 / 4.0) * (($f5 - $f6 + $f4 - $f3) *
$f1 + $f6 + $f5 + $f4 + $f3);
#X obj 203 14 inlet;
#X obj 295 14 inlet;
#X obj 387 13 inlet;
#X obj 479 14 inlet;
#X obj 20 138 outlet;
#X obj 76 40 t b f;
#X obj 20 13 r dmex1;
#X obj 76 13 r dmey1;
#X connect 0 0 5 0;
#X connect 1 0 0 2;
#X connect 2 0 0 3;
#X connect 3 0 0 4;
#X connect 4 0 0 5;
#X connect 6 0 0 0;
#X connect 6 1 0 1;
#X connect 7 0 0 0;
#X connect 8 0 6 0;
#X restore 17 216 pd interpolate_k;
#X obj 41 162 loadbang;
#X msg 58 191 1.5;
#X msg 99 191 2;
#X msg 17 191 0.8;
#X msg 140 192 1;
#N canvas 229 194 546 181 interpolate_k 0;
#X obj 20 76 expr (1.0 / 4.0) * (($f5 - $f6 - $f4 + $f3) * $f1 + $f5
+ $f6 - $f4 - $f3) * $f2 + (1.0 / 4.0) * (($f5 - $f6 + $f4 - $f3) *
$f1 + $f6 + $f5 + $f4 + $f3);
#X obj 203 14 inlet;
#X obj 295 14 inlet;
#X obj 387 13 inlet;
#X obj 479 14 inlet;
#X obj 20 138 outlet;
#X obj 76 40 t b f;
#X obj 76 13 r dmey1;
#X obj 20 13 r dmex1;
#X connect 0 0 5 0;
#X connect 1 0 0 2;
#X connect 2 0 0 3;
#X connect 3 0 0 4;
#X connect 4 0 0 5;
#X connect 6 0 0 0;
#X connect 6 1 0 1;
#X connect 7 0 6 0;
#X connect 8 0 0 0;
#X restore 201 215 pd interpolate_k;
#X obj 225 161 loadbang;
#X msg 242 190 1;
#X msg 201 190 0;
#X obj 410 163 loadbang;
#X obj 386 242 s dmtsc;
#X obj 668 161 loadbang;
#X text 32 -1 sad-ang-happy-tend;
#X obj 644 240 s dmssc;
#X msg 509 193 0.8;
#X msg 339 22 0.5;
#X msg 324 191 0.7;
#X msg 427 192 1.2;
#X msg 467 192 1.1;
#X msg 387 192 0.6;
#X msg 28 21 3;
#X msg 110 21 1;
#X msg 156 20 1.5;
#X msg 684 191 7;
#X msg 644 190 -7;
#X msg 725 190 3;
#X msg 767 191 -4;
#X msg 475 16 1.8;
#X msg 283 190 2.5;
#X msg 69 21 -1;
#X obj 216 72 s dmk8;
#X obj 393 66 s dmk9;
#X obj 560 66 s dmk13;
#X obj 17 241 s dmk16;
#X obj 201 240 s dmk19;
#X text 34 291 Interpolation of k values between the corner points
of the 2D activity-valence space. Linear interpolation in 2 steps:
first between sad-angry and tender-happy resp taken at the bottom and
top line in the activity plane \, then between those two lines in the
valence direction. Rule mapping below.;
#X msg 566 193 1;
#X obj 563 239 s dmssc1;
#X obj 543 269 s dmtsc1;
#N canvas 431 80 584 219 interpolate_k 0;
#X obj 20 96 expr (1.0 / 4.0) * (($f5 - $f6 - $f4 + $f3) * $f1 + $f5
+ $f6 - $f4 - $f3) * $f2 + (1.0 / 4.0) * (($f5 - $f6 + $f4 - $f3) *
$f1 + $f6 + $f5 + $f4 + $f3);
#X obj 203 14 inlet;
#X obj 295 14 inlet;
#X obj 387 13 inlet;
#X obj 479 14 inlet;
#X obj 20 158 outlet;
#X obj 68 71 t b f;
#X obj 76 46 * 1;
#X obj 22 46 * 1;
#X obj 21 11 r dmex1;
#X obj 76 10 r dmey1;
#X obj 131 11 r dmssc1;
#X connect 0 0 5 0;
#X connect 1 0 0 2;
#X connect 2 0 0 3;
#X connect 3 0 0 4;
#X connect 4 0 0 5;
#X connect 6 0 0 0;
#X connect 6 1 0 1;
#X connect 7 0 6 0;
#X connect 8 0 0 0;
#X connect 9 0 8 0;
#X connect 10 0 7 0;
#X connect 11 0 7 1;
#X connect 11 0 8 1;
#X restore 646 215 pd interpolate_k;
#N canvas 431 80 584 219 interpolate_k 0;
#X obj 20 96 expr (1.0 / 4.0) * (($f5 - $f6 - $f4 + $f3) * $f1 + $f5
+ $f6 - $f4 - $f3) * $f2 + (1.0 / 4.0) * (($f5 - $f6 + $f4 - $f3) *
$f1 + $f6 + $f5 + $f4 + $f3);
#X obj 203 14 inlet;
#X obj 295 14 inlet;
#X obj 387 13 inlet;
#X obj 479 14 inlet;
#X obj 20 158 outlet;
#X obj 68 71 t b f;
#X obj 76 46 * 1;
#X obj 22 46 * 1;
#X obj 21 11 r dmex1;
#X obj 76 10 r dmey1;
#X obj 131 11 r dmtsc1;
#X connect 0 0 5 0;
#X connect 1 0 0 2;
#X connect 2 0 0 3;
#X connect 3 0 0 4;
#X connect 4 0 0 5;
#X connect 6 0 0 0;
#X connect 6 1 0 1;
#X connect 7 0 6 0;
#X connect 8 0 0 0;
#X connect 9 0 8 0;
#X connect 10 0 7 0;
#X connect 11 0 7 1;
#X connect 11 0 8 1;
#X restore 386 217 pd interpolate_k;
#X connect 1 0 2 0;
#X connect 1 0 3 0;
#X connect 4 0 49 0;
#X connect 4 0 58 0;
#X connect 4 0 50 0;
#X connect 4 0 51 0;
#X connect 12 0 59 0;
#X connect 13 0 12 2;
#X connect 14 0 15 0;
#X connect 14 0 16 0;
#X connect 14 0 13 0;
#X connect 14 0 44 0;
#X connect 15 0 12 0;
#X connect 16 0 12 1;
#X connect 17 0 60 0;
#X connect 18 0 24 0;
#X connect 18 0 19 0;
#X connect 18 0 56 0;
#X connect 18 0 20 0;
#X connect 19 0 17 1;
#X connect 20 0 17 3;
#X connect 21 0 61 0;
#X connect 22 0 27 0;
#X connect 22 0 23 0;
#X connect 22 0 25 0;
#X connect 22 0 26 0;
#X connect 23 0 21 1;
#X connect 24 0 17 0;
#X connect 25 0 21 2;
#X connect 26 0 21 3;
#X connect 27 0 21 0;
#X connect 28 0 62 0;
#X connect 29 0 32 0;
#X connect 29 0 30 0;
#X connect 29 0 31 0;
#X connect 29 0 33 0;
#X connect 30 0 28 1;
#X connect 31 0 28 2;
#X connect 32 0 28 0;
#X connect 33 0 28 3;
#X connect 34 0 63 0;
#X connect 35 0 37 0;
#X connect 35 0 36 0;
#X connect 35 0 57 0;
#X connect 35 0 45 0;
#X connect 36 0 34 1;
#X connect 37 0 34 0;
#X connect 38 0 48 0;
#X connect 38 0 46 0;
#X connect 38 0 47 0;
#X connect 38 0 43 0;
#X connect 40 0 53 0;
#X connect 40 0 52 0;
#X connect 40 0 54 0;
#X connect 40 0 55 0;
#X connect 40 0 65 0;
#X connect 43 0 69 3;
#X connect 44 0 12 3;
#X connect 45 0 34 3;
#X connect 46 0 69 1;
#X connect 47 0 69 2;
#X connect 48 0 69 0;
#X connect 49 0 1 0;
#X connect 50 0 1 2;
#X connect 51 0 1 3;
#X connect 52 0 68 1;
#X connect 53 0 68 0;
#X connect 54 0 68 2;
#X connect 55 0 68 3;
#X connect 56 0 17 2;
#X connect 57 0 34 2;
#X connect 58 0 1 1;
#X connect 65 0 66 0;
#X connect 65 0 67 0;
#X connect 68 0 42 0;
#X connect 69 0 39 0;
#X restore 290 426 pd act_val_interp;
#X text 90 406 Control scaling;
#X obj 106 430 hsl 128 20 0 2 0 0 dmtsc1 dmtsc1 empty -2 -6 0 8 -261681
-1 -1 6350 1;
#X obj 55 430 nbx 4 20 -1e+037 1e+037 0 0 dmtsc1 dmtsc1 empty 0 -6
0 10 -261681 -1 -1 1 256;
#X obj 106 450 hsl 128 20 0 2 0 0 dmssc1 dmssc1 empty -2 -6 0 8 -262131
-1 -1 6350 1;
#X obj 55 450 nbx 4 20 -1e+037 1e+037 0 0 dmssc1 dmssc1 empty 0 -6
0 10 -262131 -1 -1 1 256;
#X text 240 431 Tempo;
#X text 239 450 Sound level;
#X connect 1 0 2 0;
#X connect 1 1 3 0;
#X restore 219 90 pd 2D_activity_valence_space;
#X connect 2 0 6 0;
#X connect 3 0 6 1;
#X connect 4 0 6 2;
#X connect 5 0 6 3;
#X connect 6 0 1 0;
#X connect 13 0 12 0;
