#N canvas 0 0 1288 942 10;
#X obj 143 669 +;
#X obj 209 634 +;
#X obj 249 587 +;
#X obj 308 568 +;
#X obj 374 545 +;
#X obj 420 525 +;
#X obj 479 504 +;
#X obj 534 485 +;
#X obj 587 460 +;
#X obj 625 429 +;
#X obj 687 398 +;
#X obj 738 366 +;
#X obj 782 339 +;
#X obj 831 317 +;
#X obj 874 279 +;
#X obj 924 258 +;
#X obj 974 238 +;
#X obj 85 115 inlet;
#X obj 141 115 inlet;
#X obj 201 116 inlet;
#X obj 257 116 inlet;
#X obj 308 116 inlet;
#X obj 364 117 inlet;
#X obj 424 118 inlet;
#X obj 480 118 inlet;
#X obj 535 117 inlet;
#X obj 591 117 inlet;
#X obj 651 118 inlet;
#X obj 707 118 inlet;
#X obj 758 119 inlet;
#X obj 814 119 inlet;
#X obj 874 120 inlet;
#X obj 930 120 inlet;
#X obj 985 120 inlet;
#X obj 1041 120 inlet;
#X obj 1101 121 inlet;
#X obj 1157 121 inlet;
#X obj 1035 203 +;
#X obj 1095 170 +;
#X obj 144 800 outlet;
#X connect 0 0 39 0;
#X connect 1 0 0 1;
#X connect 2 0 1 1;
#X connect 3 0 2 1;
#X connect 4 0 3 1;
#X connect 5 0 4 1;
#X connect 6 0 5 1;
#X connect 7 0 6 1;
#X connect 8 0 7 1;
#X connect 9 0 8 1;
#X connect 10 0 9 1;
#X connect 11 0 10 1;
#X connect 12 0 11 1;
#X connect 13 0 12 1;
#X connect 14 0 13 1;
#X connect 15 0 14 1;
#X connect 16 0 15 1;
#X connect 17 0 0 0;
#X connect 18 0 1 0;
#X connect 19 0 2 0;
#X connect 20 0 3 0;
#X connect 21 0 4 0;
#X connect 22 0 5 0;
#X connect 23 0 6 0;
#X connect 24 0 7 0;
#X connect 25 0 8 0;
#X connect 26 0 9 0;
#X connect 27 0 10 0;
#X connect 28 0 11 0;
#X connect 29 0 12 0;
#X connect 30 0 13 0;
#X connect 31 0 14 0;
#X connect 32 0 15 0;
#X connect 33 0 16 0;
#X connect 34 0 37 0;
#X connect 35 0 38 0;
#X connect 36 0 38 1;
#X connect 37 0 16 1;
#X connect 38 0 37 1;
