#N canvas 175 771 1723 274 10;
#X obj 43 71 t a b;
#X obj 70 102 s reset;
#X text 220 73 If it does not work then \; always start the list with
\; a float \, and then drop it.;
#X text 217 18 but as there is no list object \; does webPd interpret
as a "list" \; a message starting with a symbol?;
#X obj 43 220 outlet;
#X obj 123 220 outlet;
#X obj 203 220 outlet;
#X obj 283 220 outlet;
#X obj 363 220 outlet;
#X obj 443 220 outlet;
#X obj 43 31 inlet;
#X obj 510 220 outlet;
#X obj 590 220 outlet;
#X obj 670 220 outlet;
#X obj 750 220 outlet;
#X obj 830 220 outlet;
#X obj 901 219 outlet;
#X obj 981 219 outlet;
#X obj 1061 219 outlet;
#X obj 1141 219 outlet;
#X obj 1221 219 outlet;
#X obj 1309 218 outlet;
#X obj 1389 218 outlet;
#X obj 510 180 unpa \$7;
#X obj 591 180 unpa \$8;
#X obj 670 180 unpa \$9;
#X obj 750 180 unpa \$10;
#X obj 831 180 unpa \$11;
#X obj 901 179 unpa \$12;
#X obj 981 179 unpa \$13;
#X obj 1061 179 unpa \$14;
#X obj 1141 179 unpa \$15;
#X obj 1221 179 unpa \$16;
#X obj 1311 177 unpa \$17;
#X obj 1389 178 unpa \$18;
#X obj 1464 215 outlet;
#X obj 1552 214 outlet;
#X obj 1464 175 unpa \$19;
#X obj 1556 173 unpa \$20;
#X msg 43 133 \$1 \, \$2 \, \$3 \, \$4 \, \$5 \, \$6 \, \$7 \, \$8
\, \$9 \, \$10 \, \$11 \, \$12 \, \$13 \, \$14 \, \$15 \, \$16 \, \$17
\, \$18 \, \$19 \, \$20 \, \$21;
#X obj 124 180 unpa \$2;
#X obj 203 180 unpa \$3;
#X obj 283 180 unpa \$4;
#X obj 363 180 unpa \$5;
#X obj 443 180 unpa \$6;
#X obj 43 180 unpa \$1;
#X connect 0 0 39 0;
#X connect 0 1 1 0;
#X connect 10 0 0 0;
#X connect 23 0 11 0;
#X connect 23 1 24 0;
#X connect 24 0 12 0;
#X connect 24 1 25 0;
#X connect 25 0 13 0;
#X connect 25 1 26 0;
#X connect 26 0 14 0;
#X connect 26 1 27 0;
#X connect 27 0 15 0;
#X connect 27 1 28 0;
#X connect 28 0 16 0;
#X connect 28 1 29 0;
#X connect 29 0 17 0;
#X connect 29 1 30 0;
#X connect 30 0 18 0;
#X connect 30 1 31 0;
#X connect 31 0 19 0;
#X connect 31 1 32 0;
#X connect 32 0 20 0;
#X connect 32 1 33 0;
#X connect 33 0 21 0;
#X connect 33 1 34 0;
#X connect 34 0 22 0;
#X connect 34 1 37 0;
#X connect 37 0 35 0;
#X connect 37 1 38 0;
#X connect 38 0 36 0;
#X connect 39 0 45 0;
#X connect 40 0 5 0;
#X connect 40 1 41 0;
#X connect 41 0 6 0;
#X connect 41 1 42 0;
#X connect 42 0 7 0;
#X connect 42 1 43 0;
#X connect 43 0 8 0;
#X connect 43 1 44 0;
#X connect 44 0 9 0;
#X connect 44 1 23 0;
#X connect 45 0 4 0;
#X connect 45 1 40 0;
