#N canvas 781 95 240 240 10;
#X obj 28 115 spigot;
#X msg 61 84 0;
#X obj 127 26 r reset;
#X obj 41 8 inlet;
#X obj 28 178 outlet;
#X obj 126 177 outlet;
#X obj 126 143 spigot;
#X msg 127 83 1;
#X obj 41 34 t b b a;
#X msg 159 111 0;
#X msg 126 111 1;
#X obj 28 146 pack \$1;
#X connect 0 0 11 0;
#X connect 1 0 0 1;
#X connect 2 0 7 0;
#X connect 2 0 9 0;
#X connect 3 0 8 0;
#X connect 6 0 5 0;
#X connect 7 0 0 1;
#X connect 8 0 10 0;
#X connect 8 1 1 0;
#X connect 8 2 0 0;
#X connect 8 2 6 0;
#X connect 9 0 6 1;
#X connect 10 0 6 1;
#X connect 11 0 4 0;
